<svg width="173" height="62" viewBox="0 0 173 62" fill="none" xmlns="http://www.w3.org/2000/svg">
<g filter="url(#filter0_d_152_37)">
<rect x="4" y="3" width="164.982" height="54" rx="15" fill="#D9D9D9"/>
<path d="M47.6227 35.9531V36.5385H47.0373V35.9531H47.6227ZM47.6227 35.3677V35.9531H47.0373V35.3677H47.6227ZM47.6227 34.7824V35.3677H47.0373V34.7824H47.6227ZM47.6227 34.197V34.7824H47.0373V34.197H47.6227ZM47.6227 33.6116V34.197H47.0373V33.6116H47.6227ZM47.6227 33.0263V33.6116H47.0373V33.0263H47.6227ZM47.6227 32.4409V33.0263H47.0373V32.4409H47.6227ZM47.6227 31.8555V32.4409H47.0373V31.8555H47.6227ZM47.6227 31.2702V31.8555H47.0373V31.2702H47.6227ZM47.6227 30.6848V31.2702H47.0373V30.6848H47.6227ZM47.6227 30.0994V30.6848H47.0373V30.0994H47.6227ZM47.6227 29.5141V30.0994H47.0373V29.5141H47.6227ZM47.6227 28.9287V29.5141H47.0373V28.9287H47.6227ZM47.6227 28.3433V28.9287H47.0373V28.3433H47.6227ZM47.6227 27.758V28.3433H47.0373V27.758H47.6227ZM48.2081 27.758V28.3433H47.6227V27.758H48.2081ZM48.2081 28.3433V28.9287H47.6227V28.3433H48.2081ZM48.2081 28.9287V29.5141H47.6227V28.9287H48.2081ZM48.2081 29.5141V30.0994H47.6227V29.5141H48.2081ZM48.2081 30.0994V30.6848H47.6227V30.0994H48.2081ZM48.2081 30.6848V31.2702H47.6227V30.6848H48.2081ZM48.2081 31.2702V31.8555H47.6227V31.2702H48.2081ZM48.7934 31.8555V32.4409H48.2081V31.8555H48.7934ZM48.7934 32.4409V33.0263H48.2081V32.4409H48.7934ZM48.7934 33.0263V33.6116H48.2081V33.0263H48.7934ZM48.7934 33.6116V34.197H48.2081V33.6116H48.7934ZM48.7934 34.197V34.7824H48.2081V34.197H48.7934ZM48.7934 34.7824V35.3677H48.2081V34.7824H48.7934ZM48.7934 35.3677V35.9531H48.2081V35.3677H48.7934ZM48.7934 35.9531V36.5385H48.2081V35.9531H48.7934ZM49.3788 35.9531V36.5385H48.7934V35.9531H49.3788ZM49.9642 35.9531V36.5385H49.3788V35.9531H49.9642ZM49.9642 35.3677V35.9531H49.3788V35.3677H49.9642ZM49.9642 34.7824V35.3677H49.3788V34.7824H49.9642ZM49.9642 34.197V34.7824H49.3788V34.197H49.9642ZM49.9642 33.6116V34.197H49.3788V33.6116H49.9642ZM49.9642 33.0263V33.6116H49.3788V33.0263H49.9642ZM49.9642 32.4409V33.0263H49.3788V32.4409H49.9642ZM49.9642 31.8555V32.4409H49.3788V31.8555H49.9642ZM49.3788 31.8555V32.4409H48.7934V31.8555H49.3788ZM49.3788 31.2702V31.8555H48.7934V31.2702H49.3788ZM49.3788 32.4409V33.0263H48.7934V32.4409H49.3788ZM49.3788 33.0263V33.6116H48.7934V33.0263H49.3788ZM49.3788 33.6116V34.197H48.7934V33.6116H49.3788ZM49.3788 34.197V34.7824H48.7934V34.197H49.3788ZM49.3788 34.7824V35.3677H48.7934V34.7824H49.3788ZM49.3788 35.3677V35.9531H48.7934V35.3677H49.3788ZM48.2081 35.9531V36.5385H47.6227V35.9531H48.2081ZM48.2081 35.3677V35.9531H47.6227V35.3677H48.2081ZM48.2081 34.7824V35.3677H47.6227V34.7824H48.2081ZM48.2081 34.197V34.7824H47.6227V34.197H48.2081ZM48.2081 33.6116V34.197H47.6227V33.6116H48.2081ZM48.2081 33.0263V33.6116H47.6227V33.0263H48.2081ZM48.2081 32.4409V33.0263H47.6227V32.4409H48.2081ZM48.2081 31.8555V32.4409H47.6227V31.8555H48.2081ZM47.6227 26.0019V26.5872H47.0373V26.0019H47.6227ZM47.6227 26.5872V27.1726H47.0373V26.5872H47.6227ZM47.6227 27.1726V27.758H47.0373V27.1726H47.6227ZM49.3788 24.8311V25.4165H48.7934V24.8311H49.3788ZM49.3788 26.0019V26.5872H48.7934V26.0019H49.3788ZM49.3788 26.5872V27.1726H48.7934V26.5872H49.3788ZM49.3788 27.1726V27.758H48.7934V27.1726H49.3788ZM49.3788 27.758V28.3433H48.7934V27.758H49.3788ZM49.3788 28.3433V28.9287H48.7934V28.3433H49.3788ZM49.3788 28.9287V29.5141H48.7934V28.9287H49.3788ZM49.3788 29.5141V30.0994H48.7934V29.5141H49.3788ZM49.9642 30.0994V30.6848H49.3788V30.0994H49.9642ZM49.9642 30.6848V31.2702H49.3788V30.6848H49.9642ZM49.9642 31.2702V31.8555H49.3788V31.2702H49.9642ZM49.9642 29.5141V30.0994H49.3788V29.5141H49.9642ZM49.9642 28.9287V29.5141H49.3788V28.9287H49.9642ZM49.9642 28.3433V28.9287H49.3788V28.3433H49.9642ZM49.9642 27.758V28.3433H49.3788V27.758H49.9642ZM49.9642 27.1726V27.758H49.3788V27.1726H49.9642ZM49.9642 26.5872V27.1726H49.3788V26.5872H49.9642ZM49.9642 26.0019V26.5872H49.3788V26.0019H49.9642ZM49.9642 25.4165V26.0019H49.3788V25.4165H49.9642ZM49.9642 24.8311V25.4165H49.3788V24.8311H49.9642ZM49.9642 24.2458V24.8311H49.3788V24.2458H49.9642ZM49.3788 25.4165V26.0019H48.7934V25.4165H49.3788ZM49.9642 23.6604V24.2458H49.3788V23.6604H49.9642ZM49.9642 23.075V23.6604H49.3788V23.075H49.9642ZM48.7934 24.8311V25.4165H48.2081V24.8311H48.7934ZM48.7934 25.4165V26.0019H48.2081V25.4165H48.7934ZM48.7934 26.0019V26.5872H48.2081V26.0019H48.7934ZM48.2081 26.5872V27.1726H47.6227V26.5872H48.2081ZM48.2081 27.1726V27.758H47.6227V27.1726H48.2081ZM48.2081 26.0019V26.5872H47.6227V26.0019H48.2081ZM48.2081 25.4165V26.0019H47.6227V25.4165H48.2081ZM48.7934 26.5872V27.1726H48.2081V26.5872H48.7934ZM48.7934 27.1726V27.758H48.2081V27.1726H48.7934ZM48.7934 27.758V28.3433H48.2081V27.758H48.7934ZM48.7934 28.3433V28.9287H48.2081V28.3433H48.7934ZM48.7934 28.9287V29.5141H48.2081V28.9287H48.7934ZM48.7934 29.5141V30.0994H48.2081V29.5141H48.7934ZM48.7934 30.0994V30.6848H48.2081V30.0994H48.7934ZM48.7934 30.6848V31.2702H48.2081V30.6848H48.7934ZM48.7934 31.2702V31.8555H48.2081V31.2702H48.7934ZM49.3788 30.6848V31.2702H48.7934V30.6848H49.3788ZM49.3788 30.0994V30.6848H48.7934V30.0994H49.3788ZM54.0617 35.9531V36.5385H53.4763V35.9531H54.0617ZM54.0617 35.3677V35.9531H53.4763V35.3677H54.0617ZM54.0617 34.7824V35.3677H53.4763V34.7824H54.0617ZM54.0617 34.197V34.7824H53.4763V34.197H54.0617ZM54.0617 33.6116V34.197H53.4763V33.6116H54.0617ZM54.0617 33.0263V33.6116H53.4763V33.0263H54.0617ZM54.0617 32.4409V33.0263H53.4763V32.4409H54.0617ZM54.0617 31.8555V32.4409H53.4763V31.8555H54.0617ZM54.0617 31.2702V31.8555H53.4763V31.2702H54.0617ZM54.0617 30.6848V31.2702H53.4763V30.6848H54.0617ZM54.0617 30.0994V30.6848H53.4763V30.0994H54.0617ZM54.0617 29.5141V30.0994H53.4763V29.5141H54.0617ZM54.0617 28.9287V29.5141H53.4763V28.9287H54.0617ZM54.0617 28.3433V28.9287H53.4763V28.3433H54.0617ZM54.0617 27.758V28.3433H53.4763V27.758H54.0617ZM54.6471 27.758V28.3433H54.0617V27.758H54.6471ZM54.6471 28.3433V28.9287H54.0617V28.3433H54.6471ZM54.6471 28.9287V29.5141H54.0617V28.9287H54.6471ZM54.6471 29.5141V30.0994H54.0617V29.5141H54.6471ZM54.6471 30.0994V30.6848H54.0617V30.0994H54.6471ZM54.6471 30.6848V31.2702H54.0617V30.6848H54.6471ZM54.6471 31.2702V31.8555H54.0617V31.2702H54.6471ZM55.2324 31.8555V32.4409H54.6471V31.8555H55.2324ZM55.2324 32.4409V33.0263H54.6471V32.4409H55.2324ZM55.2324 33.0263V33.6116H54.6471V33.0263H55.2324ZM55.2324 33.6116V34.197H54.6471V33.6116H55.2324ZM55.2324 34.197V34.7824H54.6471V34.197H55.2324ZM55.2324 34.7824V35.3677H54.6471V34.7824H55.2324ZM55.2324 35.3677V35.9531H54.6471V35.3677H55.2324ZM55.2324 35.9531V36.5385H54.6471V35.9531H55.2324ZM55.8178 35.9531V36.5385H55.2324V35.9531H55.8178ZM56.4032 35.9531V36.5385H55.8178V35.9531H56.4032ZM56.4032 35.3677V35.9531H55.8178V35.3677H56.4032ZM56.4032 34.7824V35.3677H55.8178V34.7824H56.4032ZM56.4032 34.197V34.7824H55.8178V34.197H56.4032ZM56.4032 33.6116V34.197H55.8178V33.6116H56.4032ZM56.4032 33.0263V33.6116H55.8178V33.0263H56.4032ZM56.4032 32.4409V33.0263H55.8178V32.4409H56.4032ZM56.4032 31.8555V32.4409H55.8178V31.8555H56.4032ZM55.8178 31.8555V32.4409H55.2324V31.8555H55.8178ZM55.8178 31.2702V31.8555H55.2324V31.2702H55.8178ZM55.8178 32.4409V33.0263H55.2324V32.4409H55.8178ZM55.8178 33.0263V33.6116H55.2324V33.0263H55.8178ZM55.8178 33.6116V34.197H55.2324V33.6116H55.8178ZM55.8178 34.197V34.7824H55.2324V34.197H55.8178ZM55.8178 34.7824V35.3677H55.2324V34.7824H55.8178ZM55.8178 35.3677V35.9531H55.2324V35.3677H55.8178ZM54.6471 35.9531V36.5385H54.0617V35.9531H54.6471ZM54.6471 35.3677V35.9531H54.0617V35.3677H54.6471ZM54.6471 34.7824V35.3677H54.0617V34.7824H54.6471ZM54.6471 34.197V34.7824H54.0617V34.197H54.6471ZM54.6471 33.6116V34.197H54.0617V33.6116H54.6471ZM54.6471 33.0263V33.6116H54.0617V33.0263H54.6471ZM54.6471 32.4409V33.0263H54.0617V32.4409H54.6471ZM54.6471 31.8555V32.4409H54.0617V31.8555H54.6471ZM54.0617 23.075V23.6604H53.4763V23.075H54.0617ZM54.0617 23.6604V24.2458H53.4763V23.6604H54.0617ZM54.0617 24.2458V24.8311H53.4763V24.2458H54.0617ZM54.0617 24.8311V25.4165H53.4763V24.8311H54.0617ZM54.0617 25.4165V26.0019H53.4763V25.4165H54.0617ZM54.0617 26.0019V26.5872H53.4763V26.0019H54.0617ZM54.0617 26.5872V27.1726H53.4763V26.5872H54.0617ZM54.0617 27.1726V27.758H53.4763V27.1726H54.0617ZM55.8178 24.8311V25.4165H55.2324V24.8311H55.8178ZM55.8178 26.0019V26.5872H55.2324V26.0019H55.8178ZM55.8178 26.5872V27.1726H55.2324V26.5872H55.8178ZM55.8178 27.1726V27.758H55.2324V27.1726H55.8178ZM55.8178 27.758V28.3433H55.2324V27.758H55.8178ZM55.8178 28.3433V28.9287H55.2324V28.3433H55.8178ZM55.8178 28.9287V29.5141H55.2324V28.9287H55.8178ZM55.8178 29.5141V30.0994H55.2324V29.5141H55.8178ZM56.4032 30.0994V30.6848H55.8178V30.0994H56.4032ZM56.4032 30.6848V31.2702H55.8178V30.6848H56.4032ZM56.4032 31.2702V31.8555H55.8178V31.2702H56.4032ZM56.4032 29.5141V30.0994H55.8178V29.5141H56.4032ZM56.4032 28.9287V29.5141H55.8178V28.9287H56.4032ZM56.4032 28.3433V28.9287H55.8178V28.3433H56.4032ZM56.4032 27.758V28.3433H55.8178V27.758H56.4032ZM56.4032 27.1726V27.758H55.8178V27.1726H56.4032ZM56.4032 26.5872V27.1726H55.8178V26.5872H56.4032ZM56.4032 26.0019V26.5872H55.8178V26.0019H56.4032ZM56.4032 25.4165V26.0019H55.8178V25.4165H56.4032ZM55.8178 25.4165V26.0019H55.2324V25.4165H55.8178ZM55.2324 24.2458V24.8311H54.6471V24.2458H55.2324ZM55.2324 24.8311V25.4165H54.6471V24.8311H55.2324ZM55.2324 25.4165V26.0019H54.6471V25.4165H55.2324ZM55.2324 26.0019V26.5872H54.6471V26.0019H55.2324ZM54.6471 26.5872V27.1726H54.0617V26.5872H54.6471ZM54.6471 27.1726V27.758H54.0617V27.1726H54.6471ZM54.6471 26.0019V26.5872H54.0617V26.0019H54.6471ZM54.6471 25.4165V26.0019H54.0617V25.4165H54.6471ZM54.6471 24.8311V25.4165H54.0617V24.8311H54.6471ZM54.6471 24.2458V24.8311H54.0617V24.2458H54.6471ZM54.6471 23.6604V24.2458H54.0617V23.6604H54.6471ZM55.2324 26.5872V27.1726H54.6471V26.5872H55.2324ZM55.2324 27.1726V27.758H54.6471V27.1726H55.2324ZM55.2324 27.758V28.3433H54.6471V27.758H55.2324ZM55.2324 28.3433V28.9287H54.6471V28.3433H55.2324ZM55.2324 28.9287V29.5141H54.6471V28.9287H55.2324ZM55.2324 29.5141V30.0994H54.6471V29.5141H55.2324ZM55.2324 30.0994V30.6848H54.6471V30.0994H55.2324ZM55.2324 30.6848V31.2702H54.6471V30.6848H55.2324ZM55.2324 31.2702V31.8555H54.6471V31.2702H55.2324ZM55.8178 30.6848V31.2702H55.2324V30.6848H55.8178ZM55.8178 30.0994V30.6848H55.2324V30.0994H55.8178ZM51.1349 21.9043V22.4897H50.5495V21.9043H51.1349ZM51.7203 21.9043V22.4897H51.1349V21.9043H51.7203ZM52.3056 21.9043V22.4897H51.7203V21.9043H52.3056ZM52.891 21.9043V22.4897H52.3056V21.9043H52.891ZM53.4763 22.4897V23.075H52.891V22.4897H53.4763ZM52.891 22.4897V23.075H52.3056V22.4897H52.891ZM52.3056 22.4897V23.075H51.7203V22.4897H52.3056ZM51.7203 22.4897V23.075H51.1349V22.4897H51.7203ZM51.1349 22.4897V23.075H50.5495V22.4897H51.1349ZM50.5495 22.4897V23.075H49.9642V22.4897H50.5495ZM50.5495 23.075V23.6604H49.9642V23.075H50.5495ZM50.5495 23.6604V24.2458H49.9642V23.6604H50.5495ZM51.1349 23.075V23.6604H50.5495V23.075H51.1349ZM51.7203 23.075V23.6604H51.1349V23.075H51.7203ZM52.3056 23.075V23.6604H51.7203V23.075H52.3056ZM52.891 23.075V23.6604H52.3056V23.075H52.891ZM53.4763 23.075V23.6604H52.891V23.075H53.4763ZM53.4763 23.6604V24.2458H52.891V23.6604H53.4763ZM52.891 23.6604V24.2458H52.3056V23.6604H52.891ZM52.3056 23.6604V24.2458H51.7203V23.6604H52.3056ZM51.7203 23.6604V24.2458H51.1349V23.6604H51.7203ZM51.1349 23.6604V24.2458H50.5495V23.6604H51.1349ZM50.5495 24.2458V24.8311H49.9642V24.2458H50.5495ZM51.1349 24.2458V24.8311H50.5495V24.2458H51.1349ZM53.4763 24.2458V24.8311H52.891V24.2458H53.4763ZM52.891 24.2458V24.8311H52.3056V24.2458H52.891ZM53.4763 24.8311V25.4165H52.891V24.8311H53.4763ZM50.5495 24.8311V25.4165H49.9642V24.8311H50.5495ZM49.3788 23.6604V24.2458H48.7934V23.6604H49.3788ZM49.3788 24.2458V24.8311H48.7934V24.2458H49.3788ZM48.7934 24.2458V24.8311H48.2081V24.2458H48.7934ZM48.2081 24.8311V25.4165H47.6227V24.8311H48.2081ZM47.6227 25.4165V26.0019H47.0373V25.4165H47.6227ZM50.5495 25.4165V26.0019H49.9642V25.4165H50.5495ZM51.1349 24.8311V25.4165H50.5495V24.8311H51.1349ZM51.7203 24.2458V24.8311H51.1349V24.2458H51.7203ZM52.3056 24.2458V24.8311H51.7203V24.2458H52.3056ZM52.891 24.8311V25.4165H52.3056V24.8311H52.891ZM53.4763 25.4165V26.0019H52.891V25.4165H53.4763ZM50.5495 32.4409V33.0263H49.9642V32.4409H50.5495ZM51.1349 32.4409V33.0263H50.5495V32.4409H51.1349ZM51.7203 32.4409V33.0263H51.1349V32.4409H51.7203ZM52.3056 32.4409V33.0263H51.7203V32.4409H52.3056ZM52.891 32.4409V33.0263H52.3056V32.4409H52.891ZM53.4763 32.4409V33.0263H52.891V32.4409H53.4763ZM53.4763 31.8555V32.4409H52.891V31.8555H53.4763ZM52.891 31.8555V32.4409H52.3056V31.8555H52.891ZM52.3056 31.8555V32.4409H51.7203V31.8555H52.3056ZM51.7203 31.8555V32.4409H51.1349V31.8555H51.7203ZM51.1349 31.8555V32.4409H50.5495V31.8555H51.1349ZM50.5495 31.8555V32.4409H49.9642V31.8555H50.5495ZM50.5495 31.2702V31.8555H49.9642V31.2702H50.5495ZM51.1349 31.2702V31.8555H50.5495V31.2702H51.1349ZM51.7203 31.2702V31.8555H51.1349V31.2702H51.7203ZM52.3056 31.2702V31.8555H51.7203V31.2702H52.3056ZM52.891 31.2702V31.8555H52.3056V31.2702H52.891ZM53.4763 31.2702V31.8555H52.891V31.2702H53.4763ZM53.4763 30.6848V31.2702H52.891V30.6848H53.4763ZM52.891 30.6848V31.2702H52.3056V30.6848H52.891ZM52.3056 30.6848V31.2702H51.7203V30.6848H52.3056ZM51.7203 30.6848V31.2702H51.1349V30.6848H51.7203ZM51.1349 30.6848V31.2702H50.5495V30.6848H51.1349ZM50.5495 30.6848V31.2702H49.9642V30.6848H50.5495ZM50.5495 30.0994V30.6848H49.9642V30.0994H50.5495ZM51.1349 30.0994V30.6848H50.5495V30.0994H51.1349ZM51.7203 30.0994V30.6848H51.1349V30.0994H51.7203ZM52.3056 30.0994V30.6848H51.7203V30.0994H52.3056ZM52.891 30.0994V30.6848H52.3056V30.0994H52.891ZM53.4763 30.0994V30.6848H52.891V30.0994H53.4763ZM51.7203 24.8311V25.4165H51.1349V24.8311H51.7203ZM52.3056 24.8311V25.4165H51.7203V24.8311H52.3056ZM51.1349 25.4165V26.0019H50.5495V25.4165H51.1349ZM50.5495 26.0019V26.5872H49.9642V26.0019H50.5495ZM52.891 25.4165V26.0019H52.3056V25.4165H52.891ZM53.4763 26.0019V26.5872H52.891V26.0019H53.4763ZM61.6829 27.1726H62.2683V27.758H61.6829V27.1726ZM61.6829 26.5872H62.2683V27.1726H61.6829V26.5872ZM61.6829 26.0019H62.2683V26.5872H61.6829V26.0019ZM62.2683 26.0019H62.8536V26.5872H62.2683V26.0019ZM62.2683 26.5872H62.8536V27.1726H62.2683V26.5872ZM62.8536 26.5872H63.439V27.1726H62.8536V26.5872ZM62.8536 27.1726H63.439V27.758H62.8536V27.1726ZM62.2683 27.1726H62.8536V27.758H62.2683V27.1726ZM63.439 27.1726H64.0244V27.758H63.439V27.1726ZM63.439 26.5872H64.0244V27.1726H63.439V26.5872ZM63.439 26.0019H64.0244V26.5872H63.439V26.0019ZM63.439 25.4165H64.0244V26.0019H63.439V25.4165ZM62.8536 25.4165H63.439V26.0019H62.8536V25.4165ZM62.8536 26.0019H63.439V26.5872H62.8536V26.0019ZM64.0244 25.4165H64.6097V26.0019H64.0244V25.4165ZM64.6097 25.4165H65.1951V26.0019H64.6097V25.4165ZM65.1951 25.4165H65.7805V26.0019H65.1951V25.4165ZM65.1951 26.0019H65.7805V26.5872H65.1951V26.0019ZM65.1951 26.5872H65.7805V27.1726H65.1951V26.5872ZM65.1951 27.1726H65.7805V27.758H65.1951V27.1726ZM64.6097 27.1726H65.1951V27.758H64.6097V27.1726ZM64.0244 27.1726H64.6097V27.758H64.0244V27.1726ZM64.0244 26.5872H64.6097V27.1726H64.0244V26.5872ZM64.0244 26.0019H64.6097V26.5872H64.0244V26.0019ZM64.6097 26.0019H65.1951V26.5872H64.6097V26.0019ZM64.6097 26.5872H65.1951V27.1726H64.6097V26.5872ZM65.7805 26.5872H66.3658V27.1726H65.7805V26.5872ZM65.7805 26.0019H66.3658V26.5872H65.7805V26.0019ZM66.3658 26.0019H66.9512V26.5872H66.3658V26.0019ZM66.3658 26.5872H66.9512V27.1726H66.3658V26.5872ZM66.9512 26.5872H67.5366V27.1726H66.9512V26.5872ZM66.9512 27.1726H67.5366V27.758H66.9512V27.1726ZM66.9512 27.758H67.5366V28.3433H66.9512V27.758ZM66.3658 27.758H66.9512V28.3433H66.3658V27.758ZM66.3658 27.1726H66.9512V27.758H66.3658V27.1726ZM65.7805 27.1726H66.3658V27.758H65.7805V27.1726ZM65.7805 27.758H66.3658V28.3433H65.7805V27.758ZM65.1951 27.758H65.7805V28.3433H65.1951V27.758ZM64.6097 27.758H65.1951V28.3433H64.6097V27.758ZM67.5366 27.758H68.1219V28.3433H67.5366V27.758ZM67.5366 28.3433H68.1219V28.9287H67.5366V28.3433ZM67.5366 28.9287H68.1219V29.5141H67.5366V28.9287ZM67.5366 29.5141H68.1219V30.0994H67.5366V29.5141ZM67.5366 30.0994H68.1219V30.6848H67.5366V30.0994ZM67.5366 30.6848H68.1219V31.2702H67.5366V30.6848ZM67.5366 31.2702H68.1219V31.8555H67.5366V31.2702ZM67.5366 31.8555H68.1219V32.4409H67.5366V31.8555ZM67.5366 32.4409H68.1219V33.0263H67.5366V32.4409ZM67.5366 33.0263H68.1219V33.6116H67.5366V33.0263ZM66.9512 33.0263H67.5366V33.6116H66.9512V33.0263ZM66.9512 33.6116H67.5366V34.197H66.9512V33.6116ZM67.5366 33.6116H68.1219V34.197H67.5366V33.6116ZM66.3658 33.6116H66.9512V34.197H66.3658V33.6116ZM65.7805 33.6116H66.3658V34.197H65.7805V33.6116ZM65.1951 33.6116H65.7805V34.197H65.1951V33.6116ZM64.6097 33.6116H65.1951V34.197H64.6097V33.6116ZM65.1951 33.0263H65.7805V33.6116H65.1951V33.0263ZM65.1951 32.4409H65.7805V33.0263H65.1951V32.4409ZM65.1951 31.8555H65.7805V32.4409H65.1951V31.8555ZM65.1951 31.2702H65.7805V31.8555H65.1951V31.2702ZM65.1951 30.6848H65.7805V31.2702H65.1951V30.6848ZM65.1951 30.0994H65.7805V30.6848H65.1951V30.0994ZM65.1951 29.5141H65.7805V30.0994H65.1951V29.5141ZM65.1951 28.9287H65.7805V29.5141H65.1951V28.9287ZM65.1951 28.3433H65.7805V28.9287H65.1951V28.3433ZM65.7805 28.3433H66.3658V28.9287H65.7805V28.3433ZM66.3658 28.3433H66.9512V28.9287H66.3658V28.3433ZM66.9512 28.3433H67.5366V28.9287H66.9512V28.3433ZM66.9512 28.9287H67.5366V29.5141H66.9512V28.9287ZM66.9512 29.5141H67.5366V30.0994H66.9512V29.5141ZM66.9512 30.0994H67.5366V30.6848H66.9512V30.0994ZM66.9512 30.6848H67.5366V31.2702H66.9512V30.6848ZM66.9512 31.2702H67.5366V31.8555H66.9512V31.2702ZM66.9512 31.8555H67.5366V32.4409H66.9512V31.8555ZM66.9512 32.4409H67.5366V33.0263H66.9512V32.4409ZM66.3658 33.0263H66.9512V33.6116H66.3658V33.0263ZM65.7805 33.0263H66.3658V33.6116H65.7805V33.0263ZM65.7805 32.4409H66.3658V33.0263H65.7805V32.4409ZM65.7805 31.8555H66.3658V32.4409H65.7805V31.8555ZM65.7805 31.2702H66.3658V31.8555H65.7805V31.2702ZM65.7805 30.6848H66.3658V31.2702H65.7805V30.6848ZM66.3658 30.6848H66.9512V31.2702H66.3658V30.6848ZM66.3658 30.0994H66.9512V30.6848H66.3658V30.0994ZM66.3658 29.5141H66.9512V30.0994H66.3658V29.5141ZM66.3658 28.9287H66.9512V29.5141H66.3658V28.9287ZM65.7805 28.9287H66.3658V29.5141H65.7805V28.9287ZM65.7805 29.5141H66.3658V30.0994H65.7805V29.5141ZM65.7805 30.0994H66.3658V30.6848H65.7805V30.0994ZM66.3658 31.8555H66.9512V32.4409H66.3658V31.8555ZM66.3658 32.4409H66.9512V33.0263H66.3658V32.4409ZM66.3658 31.2702H66.9512V31.8555H66.3658V31.2702ZM61.6829 34.197H62.2683V34.7824H61.6829V34.197ZM62.2683 35.9531H62.8536V36.5385H62.2683V35.9531ZM62.8536 35.9531H63.439V36.5385H62.8536V35.9531ZM63.439 35.9531H64.0244V36.5385H63.439V35.9531ZM64.0244 35.9531H64.6097V36.5385H64.0244V35.9531ZM64.6097 35.9531H65.1951V36.5385H64.6097V35.9531ZM65.1951 35.9531H65.7805V36.5385H65.1951V35.9531ZM64.6097 35.3677H65.1951V35.9531H64.6097V35.3677ZM64.0244 35.3677H64.6097V35.9531H64.0244V35.3677ZM63.439 35.3677H64.0244V35.9531H63.439V35.3677ZM62.8536 35.3677H63.439V35.9531H62.8536V35.3677ZM62.2683 35.3677H62.8536V35.9531H62.2683V35.3677ZM61.6829 35.3677H62.2683V35.9531H61.6829V35.3677ZM61.6829 34.7824H62.2683V35.3677H61.6829V34.7824ZM62.2683 34.7824H62.8536V35.3677H62.2683V34.7824ZM62.8536 34.7824H63.439V35.3677H62.8536V34.7824ZM63.439 34.7824H64.0244V35.3677H63.439V34.7824ZM64.0244 34.7824H64.6097V35.3677H64.0244V34.7824ZM64.6097 34.7824H65.1951V35.3677H64.6097V34.7824ZM65.1951 35.3677H65.7805V35.9531H65.1951V35.3677ZM65.7805 35.3677H66.3658V35.9531H65.7805V35.3677ZM66.3658 35.3677H66.9512V35.9531H66.3658V35.3677ZM66.3658 34.7824H66.9512V35.3677H66.3658V34.7824ZM66.9512 34.7824H67.5366V35.3677H66.9512V34.7824ZM66.9512 34.197H67.5366V34.7824H66.9512V34.197ZM66.3658 34.197H66.9512V34.7824H66.3658V34.197ZM65.7805 34.197H66.3658V34.7824H65.7805V34.197ZM65.1951 34.197H65.7805V34.7824H65.1951V34.197ZM64.6097 34.197H65.1951V34.7824H64.6097V34.197ZM64.0244 34.197H64.6097V34.7824H64.0244V34.197ZM63.439 34.197H64.0244V34.7824H63.439V34.197ZM62.8536 34.197H63.439V34.7824H62.8536V34.197ZM62.2683 34.197H62.8536V34.7824H62.2683V34.197ZM65.1951 34.7824H65.7805V35.3677H65.1951V34.7824ZM65.7805 34.7824H66.3658V35.3677H65.7805V34.7824ZM61.0975 34.7824H61.6829V35.3677H61.0975V34.7824ZM61.0975 34.197H61.6829V34.7824H61.0975V34.197ZM61.0975 33.6116H61.6829V34.197H61.0975V33.6116ZM61.0975 33.0263H61.6829V33.6116H61.0975V33.0263ZM61.0975 32.4409H61.6829V33.0263H61.0975V32.4409ZM61.0975 31.8555H61.6829V32.4409H61.0975V31.8555ZM61.0975 31.2702H61.6829V31.8555H61.0975V31.2702ZM61.0975 30.6848H61.6829V31.2702H61.0975V30.6848ZM61.0975 30.0994H61.6829V30.6848H61.0975V30.0994ZM61.0975 29.5141H61.6829V30.0994H61.0975V29.5141ZM61.0975 28.9287H61.6829V29.5141H61.0975V28.9287ZM61.0975 28.3433H61.6829V28.9287H61.0975V28.3433ZM61.0975 27.758H61.6829V28.3433H61.0975V27.758ZM60.5122 27.758H61.0975V28.3433H60.5122V27.758ZM60.5122 28.3433H61.0975V28.9287H60.5122V28.3433ZM60.5122 28.9287H61.0975V29.5141H60.5122V28.9287ZM60.5122 29.5141H61.0975V30.0994H60.5122V29.5141ZM60.5122 30.0994H61.0975V30.6848H60.5122V30.0994ZM60.5122 30.6848H61.0975V31.2702H60.5122V30.6848ZM60.5122 31.2702H61.0975V31.8555H60.5122V31.2702ZM59.9268 31.8555H60.5122V32.4409H59.9268V31.8555ZM59.9268 32.4409H60.5122V33.0263H59.9268V32.4409ZM59.9268 33.0263H60.5122V33.6116H59.9268V33.0263ZM59.9268 33.6116H60.5122V34.197H59.9268V33.6116ZM59.9268 34.197H60.5122V34.7824H59.9268V34.197ZM59.9268 34.7824H60.5122V35.3677H59.9268V34.7824ZM59.9268 35.3677H60.5122V35.9531H59.9268V35.3677ZM59.9268 35.9531H60.5122V36.5385H59.9268V35.9531ZM59.3414 35.9531H59.9268V36.5385H59.3414V35.9531ZM58.7561 35.9531H59.3414V36.5385H58.7561V35.9531ZM58.7561 35.3677H59.3414V35.9531H58.7561V35.3677ZM58.7561 34.7824H59.3414V35.3677H58.7561V34.7824ZM58.7561 34.197H59.3414V34.7824H58.7561V34.197ZM58.7561 33.6116H59.3414V34.197H58.7561V33.6116ZM58.7561 33.0263H59.3414V33.6116H58.7561V33.0263ZM58.7561 32.4409H59.3414V33.0263H58.7561V32.4409ZM58.7561 31.8555H59.3414V32.4409H58.7561V31.8555ZM59.3414 31.8555H59.9268V32.4409H59.3414V31.8555ZM59.3414 31.2702H59.9268V31.8555H59.3414V31.2702ZM59.3414 32.4409H59.9268V33.0263H59.3414V32.4409ZM59.3414 33.0263H59.9268V33.6116H59.3414V33.0263ZM59.3414 33.6116H59.9268V34.197H59.3414V33.6116ZM59.3414 34.197H59.9268V34.7824H59.3414V34.197ZM59.3414 34.7824H59.9268V35.3677H59.3414V34.7824ZM59.3414 35.3677H59.9268V35.9531H59.3414V35.3677ZM60.5122 34.7824H61.0975V35.3677H60.5122V34.7824ZM60.5122 34.197H61.0975V34.7824H60.5122V34.197ZM60.5122 33.6116H61.0975V34.197H60.5122V33.6116ZM60.5122 33.0263H61.0975V33.6116H60.5122V33.0263ZM60.5122 32.4409H61.0975V33.0263H60.5122V32.4409ZM60.5122 31.8555H61.0975V32.4409H60.5122V31.8555ZM61.0975 21.9043H61.6829V22.4897H61.0975V21.9043ZM61.0975 22.4897H61.6829V23.075H61.0975V22.4897ZM61.0975 23.075H61.6829V23.6604H61.0975V23.075ZM61.0975 23.6604H61.6829V24.2458H61.0975V23.6604ZM61.0975 24.2458H61.6829V24.8311H61.0975V24.2458ZM61.0975 24.8311H61.6829V25.4165H61.0975V24.8311ZM61.0975 26.0019H61.6829V26.5872H61.0975V26.0019ZM61.0975 27.1726H61.6829V27.758H61.0975V27.1726ZM59.3414 21.9043H59.9268V22.4897H59.3414V21.9043ZM59.3414 22.4897H59.9268V23.075H59.3414V22.4897ZM59.3414 23.075H59.9268V23.6604H59.3414V23.075ZM59.3414 23.6604H59.9268V24.2458H59.3414V23.6604ZM59.3414 24.2458H59.9268V24.8311H59.3414V24.2458ZM59.3414 24.8311H59.9268V25.4165H59.3414V24.8311ZM59.3414 26.0019H59.9268V26.5872H59.3414V26.0019ZM59.3414 26.5872H59.9268V27.1726H59.3414V26.5872ZM59.3414 27.1726H59.9268V27.758H59.3414V27.1726ZM59.3414 28.3433H59.9268V28.9287H59.3414V28.3433ZM59.3414 28.9287H59.9268V29.5141H59.3414V28.9287ZM59.3414 29.5141H59.9268V30.0994H59.3414V29.5141ZM58.7561 30.0994H59.3414V30.6848H58.7561V30.0994ZM58.7561 30.6848H59.3414V31.2702H58.7561V30.6848ZM58.7561 31.2702H59.3414V31.8555H58.7561V31.2702ZM58.7561 29.5141H59.3414V30.0994H58.7561V29.5141ZM58.7561 28.9287H59.3414V29.5141H58.7561V28.9287ZM58.7561 27.758H59.3414V28.3433H58.7561V27.758ZM58.7561 27.1726H59.3414V27.758H58.7561V27.1726ZM58.7561 26.5872H59.3414V27.1726H58.7561V26.5872ZM58.7561 26.0019H59.3414V26.5872H58.7561V26.0019ZM58.7561 25.4165H59.3414V26.0019H58.7561V25.4165ZM58.7561 24.8311H59.3414V25.4165H58.7561V24.8311ZM58.7561 24.2458H59.3414V24.8311H58.7561V24.2458ZM59.3414 25.4165H59.9268V26.0019H59.3414V25.4165ZM58.7561 23.6604H59.3414V24.2458H58.7561V23.6604ZM58.7561 23.075H59.3414V23.6604H58.7561V23.075ZM58.7561 22.4897H59.3414V23.075H58.7561V22.4897ZM58.7561 21.9043H59.3414V22.4897H58.7561V21.9043ZM59.9268 21.9043H60.5122V22.4897H59.9268V21.9043ZM60.5122 21.9043H61.0975V22.4897H60.5122V21.9043ZM60.5122 22.4897H61.0975V23.075H60.5122V22.4897ZM59.9268 22.4897H60.5122V23.075H59.9268V22.4897ZM59.9268 23.075H60.5122V23.6604H59.9268V23.075ZM59.9268 23.6604H60.5122V24.2458H59.9268V23.6604ZM59.9268 24.2458H60.5122V24.8311H59.9268V24.2458ZM59.9268 24.8311H60.5122V25.4165H59.9268V24.8311ZM59.9268 25.4165H60.5122V26.0019H59.9268V25.4165ZM59.9268 26.0019H60.5122V26.5872H59.9268V26.0019ZM60.5122 26.5872H61.0975V27.1726H60.5122V26.5872ZM60.5122 27.1726H61.0975V27.758H60.5122V27.1726ZM60.5122 26.0019H61.0975V26.5872H60.5122V26.0019ZM60.5122 25.4165H61.0975V26.0019H60.5122V25.4165ZM60.5122 24.8311H61.0975V25.4165H60.5122V24.8311ZM60.5122 24.2458H61.0975V24.8311H60.5122V24.2458ZM60.5122 23.6604H61.0975V24.2458H60.5122V23.6604ZM60.5122 23.075H61.0975V23.6604H60.5122V23.075ZM59.9268 27.1726H60.5122V27.758H59.9268V27.1726ZM59.9268 28.3433H60.5122V28.9287H59.9268V28.3433ZM59.9268 28.9287H60.5122V29.5141H59.9268V28.9287ZM59.9268 29.5141H60.5122V30.0994H59.9268V29.5141ZM59.9268 30.0994H60.5122V30.6848H59.9268V30.0994ZM59.9268 30.6848H60.5122V31.2702H59.9268V30.6848ZM59.9268 31.2702H60.5122V31.8555H59.9268V31.2702ZM59.3414 30.6848H59.9268V31.2702H59.3414V30.6848ZM59.3414 30.0994H59.9268V30.6848H59.3414V30.0994ZM61.0975 25.4165H61.6829V26.0019H61.0975V25.4165ZM58.7561 28.3433H59.3414V28.9287H58.7561V28.3433ZM61.0975 26.5872H61.6829V27.1726H61.0975V26.5872ZM59.9268 26.5872H60.5122V27.1726H59.9268V26.5872ZM59.9268 27.758H60.5122V28.3433H59.9268V27.758ZM59.3414 27.758H59.9268V28.3433H59.3414V27.758ZM61.6829 35.9531H62.2683V36.5385H61.6829V35.9531ZM61.0975 35.3677H61.6829V35.9531H61.0975V35.3677ZM60.5122 35.3677H61.0975V35.9531H60.5122V35.3677ZM60.5122 35.9531H61.0975V36.5385H60.5122V35.9531ZM62.8536 25.4165V26.0019H62.2683V25.4165H62.8536ZM61.6829 35.9531V36.5385H61.0975V35.9531H61.6829ZM62.2683 27.758V28.3433H61.6829V27.758H62.2683ZM76.3279 28.9287V29.5141H75.7425V28.9287H76.3279ZM76.9133 28.9287V29.5141H76.3279V28.9287H76.9133ZM77.4986 28.9287V29.5141H76.9133V28.9287H77.4986ZM78.084 28.9287V29.5141H77.4986V28.9287H78.084ZM78.6694 28.9287V29.5141H78.084V28.9287H78.6694ZM78.6694 28.3433V28.9287H78.084V28.3433H78.6694ZM78.6694 27.758V28.3433H78.084V27.758H78.6694ZM78.084 27.758V28.3433H77.4986V27.758H78.084ZM77.4986 27.758V28.3433H76.9133V27.758H77.4986ZM76.9133 27.758V28.3433H76.3279V27.758H76.9133ZM76.9133 28.3433V28.9287H76.3279V28.3433H76.9133ZM76.3279 28.3433V28.9287H75.7425V28.3433H76.3279ZM77.4986 28.3433V28.9287H76.9133V28.3433H77.4986ZM78.084 28.3433V28.9287H77.4986V28.3433H78.084ZM76.3279 27.758V28.3433H75.7425V27.758H76.3279ZM75.7425 27.758V28.3433H75.1572V27.758H75.7425ZM75.7425 27.1726V27.758H75.1572V27.1726H75.7425ZM76.3279 27.1726V27.758H75.7425V27.1726H76.3279ZM76.9133 27.1726V27.758H76.3279V27.1726H76.9133ZM77.4986 27.1726V27.758H76.9133V27.1726H77.4986ZM78.084 27.1726V27.758H77.4986V27.1726H78.084ZM78.084 26.5872V27.1726H77.4986V26.5872H78.084ZM77.4986 26.5872V27.1726H76.9133V26.5872H77.4986ZM76.9133 26.5872V27.1726H76.3279V26.5872H76.9133ZM76.3279 26.5872V27.1726H75.7425V26.5872H76.3279ZM75.7425 26.5872V27.1726H75.1572V26.5872H75.7425ZM76.9133 26.0019V26.5872H76.3279V26.0019H76.9133ZM77.4986 26.0019V26.5872H76.9133V26.0019H77.4986ZM76.3279 26.0019V26.5872H75.7425V26.0019H76.3279ZM76.3279 25.4165V26.0019H75.7425V25.4165H76.3279ZM75.7425 25.4165V26.0019H75.1572V25.4165H75.7425ZM75.7425 26.0019V26.5872H75.1572V26.0019H75.7425ZM75.1572 26.0019V26.5872H74.5718V26.0019H75.1572ZM75.1572 25.4165V26.0019H74.5718V25.4165H75.1572ZM75.1572 26.5872V27.1726H74.5718V26.5872H75.1572ZM74.5718 26.5872V27.1726H73.9864V26.5872H74.5718ZM74.5718 27.1726V27.758H73.9864V27.1726H74.5718ZM75.1572 27.1726V27.758H74.5718V27.1726H75.1572ZM73.9864 27.1726V27.758H73.4011V27.1726H73.9864ZM73.9864 26.5872V27.1726H73.4011V26.5872H73.9864ZM73.9864 26.0019V26.5872H73.4011V26.0019H73.9864ZM73.9864 25.4165V26.0019H73.4011V25.4165H73.9864ZM74.5718 25.4165V26.0019H73.9864V25.4165H74.5718ZM74.5718 26.0019V26.5872H73.9864V26.0019H74.5718ZM73.4011 25.4165V26.0019H72.8157V25.4165H73.4011ZM72.8157 25.4165V26.0019H72.2303V25.4165H72.8157ZM72.2303 25.4165V26.0019H71.645V25.4165H72.2303ZM72.2303 26.0019V26.5872H71.645V26.0019H72.2303ZM72.2303 26.5872V27.1726H71.645V26.5872H72.2303ZM72.2303 27.1726V27.758H71.645V27.1726H72.2303ZM72.8157 27.1726V27.758H72.2303V27.1726H72.8157ZM73.4011 27.1726V27.758H72.8157V27.1726H73.4011ZM73.4011 26.5872V27.1726H72.8157V26.5872H73.4011ZM73.4011 26.0019V26.5872H72.8157V26.0019H73.4011ZM72.8157 26.0019V26.5872H72.2303V26.0019H72.8157ZM72.8157 26.5872V27.1726H72.2303V26.5872H72.8157ZM71.645 26.5872V27.1726H71.0596V26.5872H71.645ZM71.645 26.0019V26.5872H71.0596V26.0019H71.645ZM71.0596 26.0019V26.5872H70.4743V26.0019H71.0596ZM71.0596 26.5872V27.1726H70.4743V26.5872H71.0596ZM70.4743 26.5872V27.1726H69.8889V26.5872H70.4743ZM70.4743 27.1726V27.758H69.8889V27.1726H70.4743ZM70.4743 27.758V28.3433H69.8889V27.758H70.4743ZM71.0596 27.758V28.3433H70.4743V27.758H71.0596ZM71.0596 27.1726V27.758H70.4743V27.1726H71.0596ZM71.645 27.1726V27.758H71.0596V27.1726H71.645ZM71.645 27.758V28.3433H71.0596V27.758H71.645ZM72.2303 27.758V28.3433H71.645V27.758H72.2303ZM72.8157 27.758V28.3433H72.2303V27.758H72.8157ZM69.8889 27.758V28.3433H69.3035V27.758H69.8889ZM69.8889 28.3433V28.9287H69.3035V28.3433H69.8889ZM69.8889 28.9287V29.5141H69.3035V28.9287H69.8889ZM69.8889 29.5141V30.0994H69.3035V29.5141H69.8889ZM69.8889 30.0994V30.6848H69.3035V30.0994H69.8889ZM69.8889 30.6848V31.2702H69.3035V30.6848H69.8889ZM69.8889 31.2702V31.8555H69.3035V31.2702H69.8889ZM69.8889 31.8555V32.4409H69.3035V31.8555H69.8889ZM69.8889 32.4409V33.0263H69.3035V32.4409H69.8889ZM69.8889 33.0263V33.6116H69.3035V33.0263H69.8889ZM70.4743 33.0263V33.6116H69.8889V33.0263H70.4743ZM70.4743 33.6116V34.197H69.8889V33.6116H70.4743ZM69.8889 33.6116V34.197H69.3035V33.6116H69.8889ZM71.0596 33.6116V34.197H70.4743V33.6116H71.0596ZM71.645 33.6116V34.197H71.0596V33.6116H71.645ZM72.2303 33.6116V34.197H71.645V33.6116H72.2303ZM72.8157 33.6116V34.197H72.2303V33.6116H72.8157ZM72.2303 33.0263V33.6116H71.645V33.0263H72.2303ZM72.2303 32.4409V33.0263H71.645V32.4409H72.2303ZM72.2303 31.8555V32.4409H71.645V31.8555H72.2303ZM72.2303 31.2702V31.8555H71.645V31.2702H72.2303ZM72.2303 30.6848V31.2702H71.645V30.6848H72.2303ZM72.2303 30.0994V30.6848H71.645V30.0994H72.2303ZM72.2303 29.5141V30.0994H71.645V29.5141H72.2303ZM72.2303 28.9287V29.5141H71.645V28.9287H72.2303ZM72.2303 28.3433V28.9287H71.645V28.3433H72.2303ZM71.645 28.3433V28.9287H71.0596V28.3433H71.645ZM71.0596 28.3433V28.9287H70.4743V28.3433H71.0596ZM70.4743 28.3433V28.9287H69.8889V28.3433H70.4743ZM70.4743 28.9287V29.5141H69.8889V28.9287H70.4743ZM70.4743 29.5141V30.0994H69.8889V29.5141H70.4743ZM70.4743 30.0994V30.6848H69.8889V30.0994H70.4743ZM70.4743 30.6848V31.2702H69.8889V30.6848H70.4743ZM70.4743 31.2702V31.8555H69.8889V31.2702H70.4743ZM70.4743 31.8555V32.4409H69.8889V31.8555H70.4743ZM70.4743 32.4409V33.0263H69.8889V32.4409H70.4743ZM71.0596 33.0263V33.6116H70.4743V33.0263H71.0596ZM71.645 33.0263V33.6116H71.0596V33.0263H71.645ZM71.645 32.4409V33.0263H71.0596V32.4409H71.645ZM71.645 31.8555V32.4409H71.0596V31.8555H71.645ZM71.645 31.2702V31.8555H71.0596V31.2702H71.645ZM71.645 30.6848V31.2702H71.0596V30.6848H71.645ZM71.0596 30.6848V31.2702H70.4743V30.6848H71.0596ZM71.0596 30.0994V30.6848H70.4743V30.0994H71.0596ZM71.0596 29.5141V30.0994H70.4743V29.5141H71.0596ZM71.0596 28.9287V29.5141H70.4743V28.9287H71.0596ZM71.645 28.9287V29.5141H71.0596V28.9287H71.645ZM71.645 29.5141V30.0994H71.0596V29.5141H71.645ZM71.645 30.0994V30.6848H71.0596V30.0994H71.645ZM71.0596 31.8555V32.4409H70.4743V31.8555H71.0596ZM71.0596 32.4409V33.0263H70.4743V32.4409H71.0596ZM71.0596 31.2702V31.8555H70.4743V31.2702H71.0596ZM76.3279 32.4409V33.0263H75.7425V32.4409H76.3279ZM76.3279 33.0263V33.6116H75.7425V33.0263H76.3279ZM76.9133 33.0263V33.6116H76.3279V33.0263H76.9133ZM77.4986 33.0263V33.6116H76.9133V33.0263H77.4986ZM78.084 33.0263V33.6116H77.4986V33.0263H78.084ZM78.6694 33.0263V33.6116H78.084V33.0263H78.6694ZM78.6694 32.4409V33.0263H78.084V32.4409H78.6694ZM78.084 32.4409V33.0263H77.4986V32.4409H78.084ZM77.4986 32.4409V33.0263H76.9133V32.4409H77.4986ZM76.9133 32.4409V33.0263H76.3279V32.4409H76.9133ZM78.6694 33.6116V34.197H78.084V33.6116H78.6694ZM78.084 33.6116V34.197H77.4986V33.6116H78.084ZM77.4986 33.6116V34.197H76.9133V33.6116H77.4986ZM76.9133 33.6116V34.197H76.3279V33.6116H76.9133ZM76.3279 33.6116V34.197H75.7425V33.6116H76.3279ZM75.7425 33.6116V34.197H75.1572V33.6116H75.7425ZM75.7425 34.197V34.7824H75.1572V34.197H75.7425ZM76.3279 34.197V34.7824H75.7425V34.197H76.3279ZM76.9133 34.197V34.7824H76.3279V34.197H76.9133ZM77.4986 34.197V34.7824H76.9133V34.197H77.4986ZM77.4986 34.7824V35.3677H76.9133V34.7824H77.4986ZM78.084 34.7824V35.3677H77.4986V34.7824H78.084ZM78.084 34.197V34.7824H77.4986V34.197H78.084ZM77.4986 35.3677V35.9531H76.9133V35.3677H77.4986ZM76.9133 35.3677V35.9531H76.3279V35.3677H76.9133ZM76.9133 34.7824V35.3677H76.3279V34.7824H76.9133ZM76.3279 34.7824V35.3677H75.7425V34.7824H76.3279ZM76.3279 35.3677V35.9531H75.7425V35.3677H76.3279ZM76.3279 35.9531V36.5385H75.7425V35.9531H76.3279ZM75.7425 35.9531V36.5385H75.1572V35.9531H75.7425ZM75.1572 35.9531V36.5385H74.5718V35.9531H75.1572ZM74.5718 35.9531V36.5385H73.9864V35.9531H74.5718ZM73.9864 35.9531V36.5385H73.4011V35.9531H73.9864ZM73.4011 35.9531V36.5385H72.8157V35.9531H73.4011ZM72.8157 35.9531V36.5385H72.2303V35.9531H72.8157ZM72.2303 35.9531V36.5385H71.645V35.9531H72.2303ZM72.8157 35.3677V35.9531H72.2303V35.3677H72.8157ZM73.4011 35.3677V35.9531H72.8157V35.3677H73.4011ZM73.9864 35.3677V35.9531H73.4011V35.3677H73.9864ZM74.5718 35.3677V35.9531H73.9864V35.3677H74.5718ZM75.1572 35.3677V35.9531H74.5718V35.3677H75.1572ZM75.7425 35.3677V35.9531H75.1572V35.3677H75.7425ZM75.7425 34.7824V35.3677H75.1572V34.7824H75.7425ZM75.1572 34.7824V35.3677H74.5718V34.7824H75.1572ZM74.5718 34.7824V35.3677H73.9864V34.7824H74.5718ZM73.9864 34.7824V35.3677H73.4011V34.7824H73.9864ZM73.4011 34.7824V35.3677H72.8157V34.7824H73.4011ZM72.8157 34.7824V35.3677H72.2303V34.7824H72.8157ZM72.2303 35.3677V35.9531H71.645V35.3677H72.2303ZM71.645 35.3677V35.9531H71.0596V35.3677H71.645ZM71.0596 35.3677V35.9531H70.4743V35.3677H71.0596ZM71.0596 34.7824V35.3677H70.4743V34.7824H71.0596ZM70.4743 34.7824V35.3677H69.8889V34.7824H70.4743ZM70.4743 34.197V34.7824H69.8889V34.197H70.4743ZM71.0596 34.197V34.7824H70.4743V34.197H71.0596ZM71.645 34.197V34.7824H71.0596V34.197H71.645ZM72.2303 34.197V34.7824H71.645V34.197H72.2303ZM72.8157 34.197V34.7824H72.2303V34.197H72.8157ZM73.4011 34.197V34.7824H72.8157V34.197H73.4011ZM73.9864 34.197V34.7824H73.4011V34.197H73.9864ZM74.5718 34.197V34.7824H73.9864V34.197H74.5718ZM75.1572 34.197V34.7824H74.5718V34.197H75.1572ZM72.2303 34.7824V35.3677H71.645V34.7824H72.2303ZM71.645 34.7824V35.3677H71.0596V34.7824H71.645ZM76.3279 29.5141V30.0994H75.7425V29.5141H76.3279ZM76.3279 30.0994V30.6848H75.7425V30.0994H76.3279ZM76.9133 30.0994V30.6848H76.3279V30.0994H76.9133ZM77.4986 30.0994V30.6848H76.9133V30.0994H77.4986ZM78.084 30.0994V30.6848H77.4986V30.0994H78.084ZM78.6694 30.0994V30.6848H78.084V30.0994H78.6694ZM78.6694 29.5141V30.0994H78.084V29.5141H78.6694ZM78.084 29.5141V30.0994H77.4986V29.5141H78.084ZM77.4986 29.5141V30.0994H76.9133V29.5141H77.4986ZM76.9133 29.5141V30.0994H76.3279V29.5141H76.9133ZM76.9133 30.6848V31.2702H76.3279V30.6848H76.9133ZM77.4986 30.6848V31.2702H76.9133V30.6848H77.4986ZM77.4986 31.2702V31.8555H76.9133V31.2702H77.4986ZM78.084 31.2702V31.8555H77.4986V31.2702H78.084ZM78.084 30.6848V31.2702H77.4986V30.6848H78.084ZM78.6694 30.6848V31.2702H78.084V30.6848H78.6694ZM78.6694 31.2702V31.8555H78.084V31.2702H78.6694ZM78.6694 31.8555V32.4409H78.084V31.8555H78.6694ZM78.084 31.8555V32.4409H77.4986V31.8555H78.084ZM77.4986 31.8555V32.4409H76.9133V31.8555H77.4986ZM76.9133 31.8555V32.4409H76.3279V31.8555H76.9133ZM76.9133 31.2702V31.8555H76.3279V31.2702H76.9133ZM76.3279 31.2702V31.8555H75.7425V31.2702H76.3279ZM76.3279 30.6848V31.2702H75.7425V30.6848H76.3279ZM76.3279 31.8555V32.4409H75.7425V31.8555H76.3279ZM88.6309 26.0019V25.4165H89.2162V26.0019H88.6309ZM88.6309 26.5872V26.0019H89.2162V26.5872H88.6309ZM88.6309 27.1726V26.5872H89.2162V27.1726H88.6309ZM88.6309 27.758V27.1726H89.2162V27.758H88.6309ZM88.6309 28.3433V27.758H89.2162V28.3433H88.6309ZM88.6309 28.9287V28.3433H89.2162V28.9287H88.6309ZM88.6309 29.5141V28.9287H89.2162V29.5141H88.6309ZM88.6309 30.0994V29.5141H89.2162V30.0994H88.6309ZM88.6309 30.6848V30.0994H89.2162V30.6848H88.6309ZM88.6309 31.2702V30.6848H89.2162V31.2702H88.6309ZM88.6309 31.8555V31.2702H89.2162V31.8555H88.6309ZM88.6309 32.4409V31.8555H89.2162V32.4409H88.6309ZM88.6309 33.0263V32.4409H89.2162V33.0263H88.6309ZM88.6309 33.6116V33.0263H89.2162V33.6116H88.6309ZM88.6309 34.197V33.6116H89.2162V34.197H88.6309ZM88.0455 34.197V33.6116H88.6309V34.197H88.0455ZM88.0455 33.6116V33.0263H88.6309V33.6116H88.0455ZM88.0455 33.0263V32.4409H88.6309V33.0263H88.0455ZM88.0455 32.4409V31.8555H88.6309V32.4409H88.0455ZM88.0455 31.8555V31.2702H88.6309V31.8555H88.0455ZM88.0455 31.2702V30.6848H88.6309V31.2702H88.0455ZM88.0455 30.6848V30.0994H88.6309V30.6848H88.0455ZM87.4602 30.0994V29.5141H88.0455V30.0994H87.4602ZM87.4602 29.5141V28.9287H88.0455V29.5141H87.4602ZM87.4602 28.9287V28.3433H88.0455V28.9287H87.4602ZM87.4602 28.3433V27.758H88.0455V28.3433H87.4602ZM87.4602 27.758V27.1726H88.0455V27.758H87.4602ZM87.4602 27.1726V26.5872H88.0455V27.1726H87.4602ZM87.4602 26.5872V26.0019H88.0455V26.5872H87.4602ZM87.4602 26.0019V25.4165H88.0455V26.0019H87.4602ZM86.8748 26.0019V25.4165H87.4602V26.0019H86.8748ZM86.2894 26.0019V25.4165H86.8748V26.0019H86.2894ZM86.2894 26.5872V26.0019H86.8748V26.5872H86.2894ZM86.2894 27.1726V26.5872H86.8748V27.1726H86.2894ZM86.2894 27.758V27.1726H86.8748V27.758H86.2894ZM86.2894 28.3433V27.758H86.8748V28.3433H86.2894ZM86.2894 28.9287V28.3433H86.8748V28.9287H86.2894ZM86.2894 29.5141V28.9287H86.8748V29.5141H86.2894ZM86.2894 30.0994V29.5141H86.8748V30.0994H86.2894ZM86.8748 30.0994V29.5141H87.4602V30.0994H86.8748ZM86.8748 30.6848V30.0994H87.4602V30.6848H86.8748ZM86.8748 29.5141V28.9287H87.4602V29.5141H86.8748ZM86.8748 28.9287V28.3433H87.4602V28.9287H86.8748ZM86.8748 28.3433V27.758H87.4602V28.3433H86.8748ZM86.8748 27.758V27.1726H87.4602V27.758H86.8748ZM86.8748 27.1726V26.5872H87.4602V27.1726H86.8748ZM86.8748 26.5872V26.0019H87.4602V26.5872H86.8748ZM88.0455 26.0019V25.4165H88.6309V26.0019H88.0455ZM88.0455 26.5872V26.0019H88.6309V26.5872H88.0455ZM88.0455 27.1726V26.5872H88.6309V27.1726H88.0455ZM88.0455 27.758V27.1726H88.6309V27.758H88.0455ZM88.0455 28.3433V27.758H88.6309V28.3433H88.0455ZM88.0455 28.9287V28.3433H88.6309V28.9287H88.0455ZM88.0455 29.5141V28.9287H88.6309V29.5141H88.0455ZM88.0455 30.0994V29.5141H88.6309V30.0994H88.0455ZM88.6309 36.5385V35.9531H89.2162V36.5385H88.6309ZM88.6309 35.9531V35.3677H89.2162V35.9531H88.6309ZM88.6309 35.3677V34.7824H89.2162V35.3677H88.6309ZM88.6309 34.7824V34.197H89.2162V34.7824H88.6309ZM86.8748 35.9531V35.3677H87.4602V35.9531H86.8748ZM86.8748 35.3677V34.7824H87.4602V35.3677H86.8748ZM86.8748 34.7824V34.197H87.4602V34.7824H86.8748ZM86.8748 34.197V33.6116H87.4602V34.197H86.8748ZM86.8748 33.6116V33.0263H87.4602V33.6116H86.8748ZM86.8748 33.0263V32.4409H87.4602V33.0263H86.8748ZM86.8748 32.4409V31.8555H87.4602V32.4409H86.8748ZM86.2894 31.8555V31.2702H86.8748V31.8555H86.2894ZM86.2894 31.2702V30.6848H86.8748V31.2702H86.2894ZM86.2894 30.6848V30.0994H86.8748V30.6848H86.2894ZM86.2894 32.4409V31.8555H86.8748V32.4409H86.2894ZM86.2894 33.0263V32.4409H86.8748V33.0263H86.2894ZM86.2894 33.6116V33.0263H86.8748V33.6116H86.2894ZM86.2894 34.197V33.6116H86.8748V34.197H86.2894ZM86.2894 34.7824V34.197H86.8748V34.7824H86.2894ZM86.2894 35.3677V34.7824H86.8748V35.3677H86.2894ZM86.2894 35.9531V35.3677H86.8748V35.9531H86.2894ZM86.2894 36.5385V35.9531H86.8748V36.5385H86.2894ZM86.8748 36.5385V35.9531H87.4602V36.5385H86.8748ZM87.4602 36.5385V35.9531H88.0455V36.5385H87.4602ZM87.4602 35.9531V35.3677H88.0455V35.9531H87.4602ZM88.0455 35.3677V34.7824H88.6309V35.3677H88.0455ZM88.0455 34.7824V34.197H88.6309V34.7824H88.0455ZM88.0455 35.9531V35.3677H88.6309V35.9531H88.0455ZM88.0455 36.5385V35.9531H88.6309V36.5385H88.0455ZM87.4602 35.3677V34.7824H88.0455V35.3677H87.4602ZM87.4602 34.7824V34.197H88.0455V34.7824H87.4602ZM87.4602 34.197V33.6116H88.0455V34.197H87.4602ZM87.4602 33.6116V33.0263H88.0455V33.6116H87.4602ZM87.4602 33.0263V32.4409H88.0455V33.0263H87.4602ZM87.4602 32.4409V31.8555H88.0455V32.4409H87.4602ZM87.4602 31.8555V31.2702H88.0455V31.8555H87.4602ZM87.4602 31.2702V30.6848H88.0455V31.2702H87.4602ZM87.4602 30.6848V30.0994H88.0455V30.6848H87.4602ZM86.8748 31.2702V30.6848H87.4602V31.2702H86.8748ZM86.8748 31.8555V31.2702H87.4602V31.8555H86.8748ZM82.1919 26.0019V25.4165H82.7772V26.0019H82.1919ZM81.6065 26.0019V25.4165H82.1919V26.0019H81.6065ZM81.0211 26.0019V25.4165H81.6065V26.0019H81.0211ZM80.4358 26.0019V25.4165H81.0211V26.0019H80.4358ZM79.8504 26.5872V26.0019H80.4358V26.5872H79.8504ZM79.8504 27.1726V26.5872H80.4358V27.1726H79.8504ZM79.8504 26.0019V25.4165H80.4358V26.0019H79.8504ZM80.4358 26.5872V26.0019H81.0211V26.5872H80.4358ZM81.0211 26.5872V26.0019H81.6065V26.5872H81.0211ZM81.6065 26.5872V26.0019H82.1919V26.5872H81.6065ZM82.1919 26.5872V26.0019H82.7772V26.5872H82.1919ZM82.1919 27.1726V26.5872H82.7772V27.1726H82.1919ZM82.1919 27.758V27.1726H82.7772V27.758H82.1919ZM81.6065 27.758V27.1726H82.1919V27.758H81.6065ZM81.0211 27.758V27.1726H81.6065V27.758H81.0211ZM80.4358 27.758V27.1726H81.0211V27.758H80.4358ZM79.8504 27.758V27.1726H80.4358V27.758H79.8504ZM80.4358 27.1726V26.5872H81.0211V27.1726H80.4358ZM81.0211 27.1726V26.5872H81.6065V27.1726H81.0211ZM81.6065 27.1726V26.5872H82.1919V27.1726H81.6065ZM79.8504 34.197V33.6116H80.4358V34.197H79.8504ZM80.4358 34.197V33.6116H81.0211V34.197H80.4358ZM81.6065 34.197V33.6116H82.1919V34.197H81.6065ZM81.6065 33.6116V33.0263H82.1919V33.6116H81.6065ZM81.6065 33.0263V32.4409H82.1919V33.0263H81.6065ZM82.1919 32.4409V31.8555H82.7772V32.4409H82.1919ZM82.1919 31.8555V31.2702H82.7772V31.8555H82.1919ZM82.1919 31.2702V30.6848H82.7772V31.2702H82.1919ZM82.1919 30.6848V30.0994H82.7772V30.6848H82.1919ZM82.1919 30.0994V29.5141H82.7772V30.0994H82.1919ZM82.1919 29.5141V28.9287H82.7772V29.5141H82.1919ZM82.1919 28.9287V28.3433H82.7772V28.9287H82.1919ZM82.1919 28.3433V27.758H82.7772V28.3433H82.1919ZM81.6065 28.3433V27.758H82.1919V28.3433H81.6065ZM81.0211 28.3433V27.758H81.6065V28.3433H81.0211ZM80.4358 28.3433V27.758H81.0211V28.3433H80.4358ZM79.8504 28.3433V27.758H80.4358V28.3433H79.8504ZM79.8504 28.9287V28.3433H80.4358V28.9287H79.8504ZM79.8504 30.0994V29.5141H80.4358V30.0994H79.8504ZM79.8504 30.6848V30.0994H80.4358V30.6848H79.8504ZM79.8504 31.2702V30.6848H80.4358V31.2702H79.8504ZM79.8504 31.8555V31.2702H80.4358V31.8555H79.8504ZM79.8504 32.4409V31.8555H80.4358V32.4409H79.8504ZM79.8504 33.0263V32.4409H80.4358V33.0263H79.8504ZM79.8504 33.6116V33.0263H80.4358V33.6116H79.8504ZM80.4358 31.2702V30.6848H81.0211V31.2702H80.4358ZM80.4358 30.0994V29.5141H81.0211V30.0994H80.4358ZM80.4358 29.5141V28.9287H81.0211V29.5141H80.4358ZM80.4358 28.9287V28.3433H81.0211V28.9287H80.4358ZM79.8504 29.5141V28.9287H80.4358V29.5141H79.8504ZM80.4358 32.4409V31.8555H81.0211V32.4409H80.4358ZM81.0211 32.4409V31.8555H81.6065V32.4409H81.0211ZM81.6065 32.4409V31.8555H82.1919V32.4409H81.6065ZM81.6065 31.8555V31.2702H82.1919V31.8555H81.6065ZM81.6065 31.2702V30.6848H82.1919V31.2702H81.6065ZM81.6065 30.6848V30.0994H82.1919V30.6848H81.6065ZM81.6065 30.0994V29.5141H82.1919V30.0994H81.6065ZM81.6065 29.5141V28.9287H82.1919V29.5141H81.6065ZM81.6065 28.9287V28.3433H82.1919V28.9287H81.6065ZM81.0211 28.9287V28.3433H81.6065V28.9287H81.0211ZM81.0211 29.5141V28.9287H81.6065V29.5141H81.0211ZM81.0211 30.0994V29.5141H81.6065V30.0994H81.0211ZM81.0211 30.6848V30.0994H81.6065V30.6848H81.0211ZM81.0211 31.2702V30.6848H81.6065V31.2702H81.0211ZM81.0211 31.8555V31.2702H81.6065V31.8555H81.0211ZM80.4358 31.8555V31.2702H81.0211V31.8555H80.4358ZM80.4358 30.6848V30.0994H81.0211V30.6848H80.4358ZM80.4358 33.0263V32.4409H81.0211V33.0263H80.4358ZM80.4358 33.6116V33.0263H81.0211V33.6116H80.4358ZM81.0211 33.6116V33.0263H81.6065V33.6116H81.0211ZM81.0211 33.0263V32.4409H81.6065V33.0263H81.0211ZM82.1919 33.0263V32.4409H82.7772V33.0263H82.1919ZM82.1919 33.6116V33.0263H82.7772V33.6116H82.1919ZM82.1919 34.197V33.6116H82.7772V34.197H82.1919ZM81.0211 34.197V33.6116H81.6065V34.197H81.0211ZM82.1919 36.5385V35.9531H82.7772V36.5385H82.1919ZM82.1919 35.9531V35.3677H82.7772V35.9531H82.1919ZM81.6065 35.9531V35.3677H82.1919V35.9531H81.6065ZM81.0211 35.9531V35.3677H81.6065V35.9531H81.0211ZM81.0211 35.3677V34.7824H81.6065V35.3677H81.0211ZM80.4358 35.3677V34.7824H81.0211V35.3677H80.4358ZM80.4358 34.7824V34.197H81.0211V34.7824H80.4358ZM81.0211 34.7824V34.197H81.6065V34.7824H81.0211ZM81.6065 34.7824V34.197H82.1919V34.7824H81.6065ZM81.6065 35.3677V34.7824H82.1919V35.3677H81.6065ZM82.1919 35.3677V34.7824H82.7772V35.3677H82.1919ZM82.7772 35.3677V34.7824H83.3626V35.3677H82.7772ZM82.7772 34.7824V34.197H83.3626V34.7824H82.7772ZM82.1919 34.7824V34.197H82.7772V34.7824H82.1919ZM82.7772 34.197V33.6116H83.3626V34.197H82.7772ZM83.3626 34.7824V34.197H83.948V34.7824H83.3626ZM83.3626 35.3677V34.7824H83.948V35.3677H83.3626ZM83.3626 35.9531V35.3677H83.948V35.9531H83.3626ZM83.3626 36.5385V35.9531H83.948V36.5385H83.3626ZM82.7772 36.5385V35.9531H83.3626V36.5385H82.7772ZM82.7772 35.9531V35.3677H83.3626V35.9531H82.7772ZM83.948 36.5385V35.9531H84.5333V36.5385H83.948ZM83.948 35.9531V35.3677H84.5333V35.9531H83.948ZM83.948 35.3677V34.7824H84.5333V35.3677H83.948ZM83.948 34.7824V34.197H84.5333V34.7824H83.948ZM84.5333 36.5385V35.9531H85.1187V36.5385H84.5333ZM84.5333 35.9531V35.3677H85.1187V35.9531H84.5333ZM85.1187 35.9531V35.3677H85.7041V35.9531H85.1187ZM85.1187 35.3677V34.7824H85.7041V35.3677H85.1187ZM85.7041 35.3677V34.7824H86.2894V35.3677H85.7041ZM85.7041 34.7824V34.197H86.2894V34.7824H85.7041ZM85.1187 34.7824V34.197H85.7041V34.7824H85.1187ZM84.5333 34.7824V34.197H85.1187V34.7824H84.5333ZM84.5333 35.3677V34.7824H85.1187V35.3677H84.5333ZM85.1187 36.5385V35.9531H85.7041V36.5385H85.1187ZM85.7041 35.9531V35.3677H86.2894V35.9531H85.7041ZM86.2894 33.6116V34.197H85.7041V33.6116H86.2894ZM94.4954 23.075V23.6604H93.91V23.075H94.4954ZM94.4954 23.6604V24.2458H93.91V23.6604H94.4954ZM94.4954 24.2458V24.8311H93.91V24.2458H94.4954ZM94.4954 24.8311V25.4165H93.91V24.8311H94.4954ZM94.4954 25.4165V26.0019H93.91V25.4165H94.4954ZM94.4954 26.0019V26.5872H93.91V26.0019H94.4954ZM94.4954 26.5872V27.1726H93.91V26.5872H94.4954ZM94.4954 27.1726V27.758H93.91V27.1726H94.4954ZM95.0808 27.1726V27.758H94.4954V27.1726H95.0808ZM95.6661 27.1726V27.758H95.0808V27.1726H95.6661ZM96.2515 27.1726V27.758H95.6661V27.1726H96.2515ZM96.8369 27.1726V27.758H96.2515V27.1726H96.8369ZM94.4954 28.3433V28.9287H93.91V28.3433H94.4954ZM93.91 28.3433V28.9287H93.3247V28.3433H93.91ZM93.91 27.758V28.3433H93.3247V27.758H93.91ZM94.4954 27.758V28.3433H93.91V27.758H94.4954ZM94.4954 28.9287V29.5141H93.91V28.9287H94.4954ZM93.91 28.9287V29.5141H93.3247V28.9287H93.91ZM93.3247 28.9287V29.5141H92.7393V28.9287H93.3247ZM92.7393 28.9287V29.5141H92.1539V28.9287H92.7393ZM92.1539 28.9287V29.5141H91.5686V28.9287H92.1539ZM90.9832 27.1726V27.758H90.3978V27.1726H90.9832ZM91.5686 27.1726V27.758H90.9832V27.1726H91.5686ZM92.1539 27.1726V27.758H91.5686V27.1726H92.1539ZM92.7393 27.1726V27.758H92.1539V27.1726H92.7393ZM93.3247 27.1726V27.758H92.7393V27.1726H93.3247ZM93.91 27.1726V27.758H93.3247V27.1726H93.91ZM93.3247 28.3433V28.9287H92.7393V28.3433H93.3247ZM93.3247 27.758V28.3433H92.7393V27.758H93.3247ZM92.7393 27.758V28.3433H92.1539V27.758H92.7393ZM92.1539 27.758V28.3433H91.5686V27.758H92.1539ZM92.1539 28.3433V28.9287H91.5686V28.3433H92.1539ZM92.7393 28.3433V28.9287H92.1539V28.3433H92.7393ZM93.91 23.6604V24.2458H93.3247V23.6604H93.91ZM93.91 24.2458V24.8311H93.3247V24.2458H93.91ZM93.3247 24.2458V24.8311H92.7393V24.2458H93.3247ZM93.3247 24.8311V25.4165H92.7393V24.8311H93.3247ZM93.3247 25.4165V26.0019H92.7393V25.4165H93.3247ZM92.7393 24.8311V25.4165H92.1539V24.8311H92.7393ZM92.7393 25.4165V26.0019H92.1539V25.4165H92.7393ZM92.1539 25.4165V26.0019H91.5686V25.4165H92.1539ZM92.1539 26.0019V26.5872H91.5686V26.0019H92.1539ZM92.1539 26.5872V27.1726H91.5686V26.5872H92.1539ZM93.3247 26.5872V27.1726H92.7393V26.5872H93.3247ZM93.91 26.5872V27.1726H93.3247V26.5872H93.91ZM93.91 26.0019V26.5872H93.3247V26.0019H93.91ZM93.91 25.4165V26.0019H93.3247V25.4165H93.91ZM93.91 24.8311V25.4165H93.3247V24.8311H93.91ZM93.3247 26.0019V26.5872H92.7393V26.0019H93.3247ZM92.7393 26.5872V27.1726H92.1539V26.5872H92.7393ZM92.7393 26.0019V26.5872H92.1539V26.0019H92.7393ZM96.8369 34.197V34.7824H96.2515V34.197H96.8369ZM96.8369 34.7824V35.3677H96.2515V34.7824H96.8369ZM96.8369 35.9531V36.5385H96.2515V35.9531H96.8369ZM96.2515 35.9531V36.5385H95.6661V35.9531H96.2515ZM95.6661 35.9531V36.5385H95.0808V35.9531H95.6661ZM95.0808 35.9531V36.5385H94.4954V35.9531H95.0808ZM94.4954 35.9531V36.5385H93.91V35.9531H94.4954ZM94.4954 35.3677V35.9531H93.91V35.3677H94.4954ZM93.91 35.3677V35.9531H93.3247V35.3677H93.91ZM93.3247 35.3677V35.9531H92.7393V35.3677H93.3247ZM93.3247 34.7824V35.3677H92.7393V34.7824H93.3247ZM92.7393 34.7824V35.3677H92.1539V34.7824H92.7393ZM92.7393 34.197V34.7824H92.1539V34.197H92.7393ZM92.7393 33.6116V34.197H92.1539V33.6116H92.7393ZM92.1539 33.6116V34.197H91.5686V33.6116H92.1539ZM92.1539 33.0263V33.6116H91.5686V33.0263H92.1539ZM92.1539 32.4409V33.0263H91.5686V32.4409H92.1539ZM92.1539 31.8555V32.4409H91.5686V31.8555H92.1539ZM92.1539 31.2702V31.8555H91.5686V31.2702H92.1539ZM92.1539 30.6848V31.2702H91.5686V30.6848H92.1539ZM92.1539 30.0994V30.6848H91.5686V30.0994H92.1539ZM92.1539 29.5141V30.0994H91.5686V29.5141H92.1539ZM92.7393 29.5141V30.0994H92.1539V29.5141H92.7393ZM93.3247 29.5141V30.0994H92.7393V29.5141H93.3247ZM93.91 29.5141V30.0994H93.3247V29.5141H93.91ZM94.4954 29.5141V30.0994H93.91V29.5141H94.4954ZM94.4954 30.0994V30.6848H93.91V30.0994H94.4954ZM94.4954 30.6848V31.2702H93.91V30.6848H94.4954ZM94.4954 31.2702V31.8555H93.91V31.2702H94.4954ZM94.4954 31.8555V32.4409H93.91V31.8555H94.4954ZM94.4954 32.4409V33.0263H93.91V32.4409H94.4954ZM94.4954 33.0263V33.6116H93.91V33.0263H94.4954ZM94.4954 33.6116V34.197H93.91V33.6116H94.4954ZM95.0808 33.6116V34.197H94.4954V33.6116H95.0808ZM95.0808 34.197V34.7824H94.4954V34.197H95.0808ZM95.6661 34.197V34.7824H95.0808V34.197H95.6661ZM95.6661 34.7824V35.3677H95.0808V34.7824H95.6661ZM96.2515 34.7824V35.3677H95.6661V34.7824H96.2515ZM96.2515 34.197V34.7824H95.6661V34.197H96.2515ZM96.8369 35.3677V35.9531H96.2515V35.3677H96.8369ZM96.2515 35.3677V35.9531H95.6661V35.3677H96.2515ZM95.6661 35.3677V35.9531H95.0808V35.3677H95.6661ZM95.0808 35.3677V35.9531H94.4954V35.3677H95.0808ZM95.0808 34.7824V35.3677H94.4954V34.7824H95.0808ZM94.4954 34.7824V35.3677H93.91V34.7824H94.4954ZM94.4954 34.197V34.7824H93.91V34.197H94.4954ZM93.91 34.197V34.7824H93.3247V34.197H93.91ZM93.91 34.7824V35.3677H93.3247V34.7824H93.91ZM93.3247 34.197V34.7824H92.7393V34.197H93.3247ZM93.91 33.6116V34.197H93.3247V33.6116H93.91ZM93.91 33.0263V33.6116H93.3247V33.0263H93.91ZM93.3247 33.6116V34.197H92.7393V33.6116H93.3247ZM93.3247 33.0263V33.6116H92.7393V33.0263H93.3247ZM93.91 32.4409V33.0263H93.3247V32.4409H93.91ZM93.91 31.8555V32.4409H93.3247V31.8555H93.91ZM93.91 31.2702V31.8555H93.3247V31.2702H93.91ZM93.91 30.6848V31.2702H93.3247V30.6848H93.91ZM93.91 30.0994V30.6848H93.3247V30.0994H93.91ZM93.3247 30.0994V30.6848H92.7393V30.0994H93.3247ZM92.7393 30.0994V30.6848H92.1539V30.0994H92.7393ZM92.7393 30.6848V31.2702H92.1539V30.6848H92.7393ZM92.7393 31.2702V31.8555H92.1539V31.2702H92.7393ZM92.7393 31.8555V32.4409H92.1539V31.8555H92.7393ZM92.7393 32.4409V33.0263H92.1539V32.4409H92.7393ZM92.7393 33.0263V33.6116H92.1539V33.0263H92.7393ZM93.3247 32.4409V33.0263H92.7393V32.4409H93.3247ZM93.3247 31.8555V32.4409H92.7393V31.8555H93.3247ZM93.3247 31.2702V31.8555H92.7393V31.2702H93.3247ZM93.3247 30.6848V31.2702H92.7393V30.6848H93.3247ZM96.8369 26.0019V26.5872H96.2515V26.0019H96.8369ZM96.2515 26.0019V26.5872H95.6661V26.0019H96.2515ZM96.2515 26.5872V27.1726H95.6661V26.5872H96.2515ZM96.8369 26.5872V27.1726H96.2515V26.5872H96.8369ZM95.6661 26.5872V27.1726H95.0808V26.5872H95.6661ZM95.0808 26.5872V27.1726H94.4954V26.5872H95.0808ZM95.0808 26.0019V26.5872H94.4954V26.0019H95.0808ZM95.6661 26.0019V26.5872H95.0808V26.0019H95.6661ZM92.1539 24.8311V25.4165H91.5686V24.8311H92.1539ZM92.7393 24.2458V24.8311H92.1539V24.2458H92.7393ZM93.3247 23.6604V24.2458H92.7393V23.6604H93.3247ZM93.91 23.075V23.6604H93.3247V23.075H93.91ZM91.5686 26.0019V26.5872H90.9832V26.0019H91.5686ZM91.5686 26.5872V27.1726H90.9832V26.5872H91.5686ZM90.9832 26.5872V27.1726H90.3978V26.5872H90.9832ZM90.9832 26.0019V26.5872H90.3978V26.0019H90.9832ZM94.4954 22.4897V23.075H93.91V22.4897H94.4954ZM90.9832 27.758V28.3433H90.3978V27.758H90.9832ZM91.5686 27.758V28.3433H90.9832V27.758H91.5686ZM95.0808 27.758V28.3433H94.4954V27.758H95.0808ZM95.6661 27.758V28.3433H95.0808V27.758H95.6661ZM96.2515 27.758V28.3433H95.6661V27.758H96.2515ZM96.8369 27.758V28.3433H96.2515V27.758H96.8369ZM105.045 33.6116V34.197H104.459V33.6116H105.045ZM105.045 33.0263V33.6116H104.459V33.0263H105.045ZM105.045 32.4409V33.0263H104.459V32.4409H105.045ZM105.045 31.8555V32.4409H104.459V31.8555H105.045ZM105.045 31.2702V31.8555H104.459V31.2702H105.045ZM105.045 30.6848V31.2702H104.459V30.6848H105.045ZM105.045 30.0994V30.6848H104.459V30.0994H105.045ZM105.045 29.5141V30.0994H104.459V29.5141H105.045ZM105.045 28.9287V29.5141H104.459V28.9287H105.045ZM105.045 28.3433V28.9287H104.459V28.3433H105.045ZM105.045 27.758V28.3433H104.459V27.758H105.045ZM105.63 27.758V28.3433H105.045V27.758H105.63ZM105.63 28.3433V28.9287H105.045V28.3433H105.63ZM105.63 28.9287V29.5141H105.045V28.9287H105.63ZM105.63 29.5141V30.0994H105.045V29.5141H105.63ZM105.63 30.0994V30.6848H105.045V30.0994H105.63ZM105.63 30.6848V31.2702H105.045V30.6848H105.63ZM105.63 31.2702V31.8555H105.045V31.2702H105.63ZM106.215 31.8555V32.4409H105.63V31.8555H106.215ZM106.215 32.4409V33.0263H105.63V32.4409H106.215ZM106.215 33.0263V33.6116H105.63V33.0263H106.215ZM106.215 33.6116V34.197H105.63V33.6116H106.215ZM106.215 34.197V34.7824H105.63V34.197H106.215ZM106.215 34.7824V35.3677H105.63V34.7824H106.215ZM106.215 35.3677V35.9531H105.63V35.3677H106.215ZM107.386 35.9531V36.5385H106.801V35.9531H107.386ZM107.386 35.3677V35.9531H106.801V35.3677H107.386ZM107.386 34.7824V35.3677H106.801V34.7824H107.386ZM107.386 34.197V34.7824H106.801V34.197H107.386ZM107.386 33.6116V34.197H106.801V33.6116H107.386ZM107.386 33.0263V33.6116H106.801V33.0263H107.386ZM107.386 32.4409V33.0263H106.801V32.4409H107.386ZM107.386 31.8555V32.4409H106.801V31.8555H107.386ZM106.801 31.8555V32.4409H106.215V31.8555H106.801ZM106.801 31.2702V31.8555H106.215V31.2702H106.801ZM106.801 32.4409V33.0263H106.215V32.4409H106.801ZM106.801 33.0263V33.6116H106.215V33.0263H106.801ZM106.801 33.6116V34.197H106.215V33.6116H106.801ZM106.801 34.197V34.7824H106.215V34.197H106.801ZM106.801 34.7824V35.3677H106.215V34.7824H106.801ZM106.801 35.3677V35.9531H106.215V35.3677H106.801ZM105.63 34.7824V35.3677H105.045V34.7824H105.63ZM105.63 34.197V34.7824H105.045V34.197H105.63ZM105.63 33.6116V34.197H105.045V33.6116H105.63ZM105.63 33.0263V33.6116H105.045V33.0263H105.63ZM105.63 32.4409V33.0263H105.045V32.4409H105.63ZM105.63 31.8555V32.4409H105.045V31.8555H105.63ZM105.045 27.1726V27.758H104.459V27.1726H105.045ZM106.801 27.1726V27.758H106.215V27.1726H106.801ZM106.801 27.758V28.3433H106.215V27.758H106.801ZM106.801 28.3433V28.9287H106.215V28.3433H106.801ZM106.801 28.9287V29.5141H106.215V28.9287H106.801ZM106.801 29.5141V30.0994H106.215V29.5141H106.801ZM107.386 30.0994V30.6848H106.801V30.0994H107.386ZM107.386 30.6848V31.2702H106.801V30.6848H107.386ZM107.386 31.2702V31.8555H106.801V31.2702H107.386ZM107.386 29.5141V30.0994H106.801V29.5141H107.386ZM107.386 28.9287V29.5141H106.801V28.9287H107.386ZM107.386 28.3433V28.9287H106.801V28.3433H107.386ZM107.386 27.758V28.3433H106.801V27.758H107.386ZM107.386 27.1726V27.758H106.801V27.1726H107.386ZM105.63 27.1726V27.758H105.045V27.1726H105.63ZM106.215 27.1726V27.758H105.63V27.1726H106.215ZM106.215 27.758V28.3433H105.63V27.758H106.215ZM106.215 28.3433V28.9287H105.63V28.3433H106.215ZM106.215 28.9287V29.5141H105.63V28.9287H106.215ZM106.215 29.5141V30.0994H105.63V29.5141H106.215ZM106.215 30.0994V30.6848H105.63V30.0994H106.215ZM106.215 30.6848V31.2702H105.63V30.6848H106.215ZM106.215 31.2702V31.8555H105.63V31.2702H106.215ZM106.801 30.6848V31.2702H106.215V30.6848H106.801ZM106.801 30.0994V30.6848H106.215V30.0994H106.801ZM112.069 35.9531V36.5385H111.484V35.9531H112.069ZM112.069 35.3677V35.9531H111.484V35.3677H112.069ZM112.069 34.7824V35.3677H111.484V34.7824H112.069ZM112.069 34.197V34.7824H111.484V34.197H112.069ZM112.069 33.6116V34.197H111.484V33.6116H112.069ZM112.069 33.0263V33.6116H111.484V33.0263H112.069ZM112.069 32.4409V33.0263H111.484V32.4409H112.069ZM112.069 31.8555V32.4409H111.484V31.8555H112.069ZM112.069 31.2702V31.8555H111.484V31.2702H112.069ZM112.069 30.6848V31.2702H111.484V30.6848H112.069ZM112.069 30.0994V30.6848H111.484V30.0994H112.069ZM112.069 29.5141V30.0994H111.484V29.5141H112.069ZM112.069 28.9287V29.5141H111.484V28.9287H112.069ZM112.069 28.3433V28.9287H111.484V28.3433H112.069ZM112.069 27.758V28.3433H111.484V27.758H112.069ZM112.654 27.758V28.3433H112.069V27.758H112.654ZM112.654 28.3433V28.9287H112.069V28.3433H112.654ZM112.654 28.9287V29.5141H112.069V28.9287H112.654ZM112.654 29.5141V30.0994H112.069V29.5141H112.654ZM112.654 30.0994V30.6848H112.069V30.0994H112.654ZM112.654 30.6848V31.2702H112.069V30.6848H112.654ZM112.654 31.2702V31.8555H112.069V31.2702H112.654ZM113.24 31.8555V32.4409H112.654V31.8555H113.24ZM113.24 32.4409V33.0263H112.654V32.4409H113.24ZM113.24 33.0263V33.6116H112.654V33.0263H113.24ZM113.24 33.6116V34.197H112.654V33.6116H113.24ZM113.24 34.197V34.7824H112.654V34.197H113.24ZM113.24 34.7824V35.3677H112.654V34.7824H113.24ZM113.24 35.3677V35.9531H112.654V35.3677H113.24ZM114.41 33.6116V34.197H113.825V33.6116H114.41ZM114.41 33.0263V33.6116H113.825V33.0263H114.41ZM114.41 32.4409V33.0263H113.825V32.4409H114.41ZM114.41 31.8555V32.4409H113.825V31.8555H114.41ZM113.825 31.8555V32.4409H113.24V31.8555H113.825ZM113.825 31.2702V31.8555H113.24V31.2702H113.825ZM113.825 32.4409V33.0263H113.24V32.4409H113.825ZM113.825 33.0263V33.6116H113.24V33.0263H113.825ZM113.825 33.6116V34.197H113.24V33.6116H113.825ZM113.825 34.197V34.7824H113.24V34.197H113.825ZM113.825 34.7824V35.3677H113.24V34.7824H113.825ZM112.654 35.3677V35.9531H112.069V35.3677H112.654ZM112.654 34.7824V35.3677H112.069V34.7824H112.654ZM112.654 34.197V34.7824H112.069V34.197H112.654ZM112.654 33.6116V34.197H112.069V33.6116H112.654ZM112.654 33.0263V33.6116H112.069V33.0263H112.654ZM112.654 32.4409V33.0263H112.069V32.4409H112.654ZM112.654 31.8555V32.4409H112.069V31.8555H112.654ZM112.069 27.1726V27.758H111.484V27.1726H112.069ZM113.825 27.1726V27.758H113.24V27.1726H113.825ZM113.825 27.758V28.3433H113.24V27.758H113.825ZM113.825 28.3433V28.9287H113.24V28.3433H113.825ZM113.825 28.9287V29.5141H113.24V28.9287H113.825ZM113.825 29.5141V30.0994H113.24V29.5141H113.825ZM114.41 30.0994V30.6848H113.825V30.0994H114.41ZM114.41 30.6848V31.2702H113.825V30.6848H114.41ZM114.41 31.2702V31.8555H113.825V31.2702H114.41ZM114.41 29.5141V30.0994H113.825V29.5141H114.41ZM114.41 28.9287V29.5141H113.825V28.9287H114.41ZM114.41 28.3433V28.9287H113.825V28.3433H114.41ZM114.41 27.758V28.3433H113.825V27.758H114.41ZM114.41 27.1726V27.758H113.825V27.1726H114.41ZM112.654 27.1726V27.758H112.069V27.1726H112.654ZM113.24 27.1726V27.758H112.654V27.1726H113.24ZM113.24 27.758V28.3433H112.654V27.758H113.24ZM113.24 28.3433V28.9287H112.654V28.3433H113.24ZM113.24 28.9287V29.5141H112.654V28.9287H113.24ZM113.24 29.5141V30.0994H112.654V29.5141H113.24ZM113.24 30.0994V30.6848H112.654V30.0994H113.24ZM113.24 30.6848V31.2702H112.654V30.6848H113.24ZM113.24 31.2702V31.8555H112.654V31.2702H113.24ZM113.825 30.6848V31.2702H113.24V30.6848H113.825ZM113.825 30.0994V30.6848H113.24V30.0994H113.825ZM107.971 35.9531V36.5385H107.386V35.9531H107.971ZM108.557 35.9531V36.5385H107.971V35.9531H108.557ZM109.727 35.9531V36.5385H109.142V35.9531H109.727ZM110.313 35.9531V36.5385H109.727V35.9531H110.313ZM110.898 35.9531V36.5385H110.313V35.9531H110.898ZM111.484 35.9531V36.5385H110.898V35.9531H111.484ZM111.484 35.3677V35.9531H110.898V35.3677H111.484ZM110.898 35.3677V35.9531H110.313V35.3677H110.898ZM110.313 35.3677V35.9531H109.727V35.3677H110.313ZM109.727 35.3677V35.9531H109.142V35.3677H109.727ZM108.557 35.3677V35.9531H107.971V35.3677H108.557ZM107.971 35.3677V35.9531H107.386V35.3677H107.971ZM107.971 34.7824V35.3677H107.386V34.7824H107.971ZM108.557 34.7824V35.3677H107.971V34.7824H108.557ZM109.727 34.7824V35.3677H109.142V34.7824H109.727ZM110.313 34.7824V35.3677H109.727V34.7824H110.313ZM110.898 34.7824V35.3677H110.313V34.7824H110.898ZM111.484 34.7824V35.3677H110.898V34.7824H111.484ZM111.484 34.197V34.7824H110.898V34.197H111.484ZM110.898 34.197V34.7824H110.313V34.197H110.898ZM110.313 34.197V34.7824H109.727V34.197H110.313ZM109.727 34.197V34.7824H109.142V34.197H109.727ZM108.557 34.197V34.7824H107.971V34.197H108.557ZM107.971 34.197V34.7824H107.386V34.197H107.971ZM107.971 33.6116V34.197H107.386V33.6116H107.971ZM111.484 33.6116V34.197H110.898V33.6116H111.484ZM113.825 24.8311V24.2458H114.41V24.8311H113.825ZM113.825 25.4165V24.8311H114.41V25.4165H113.825ZM113.825 26.0019V25.4165H114.41V26.0019H113.825ZM112.654 26.0019V25.4165H113.24V26.0019H112.654ZM112.654 25.4165V24.8311H113.24V25.4165H112.654ZM112.654 24.8311V24.2458H113.24V24.8311H112.654ZM112.654 24.2458V23.6604H113.24V24.2458H112.654ZM112.654 23.6604V23.075H113.24V23.6604H112.654ZM112.654 23.075V22.4897H113.24V23.075H112.654ZM111.484 22.4897V21.9043H112.069V22.4897H111.484ZM111.484 23.075V22.4897H112.069V23.075H111.484ZM111.484 23.6604V23.075H112.069V23.6604H111.484ZM111.484 24.2458V23.6604H112.069V24.2458H111.484ZM111.484 24.8311V24.2458H112.069V24.8311H111.484ZM111.484 25.4165V24.8311H112.069V25.4165H111.484ZM111.484 26.0019V25.4165H112.069V26.0019H111.484ZM112.069 26.0019V25.4165H112.654V26.0019H112.069ZM112.069 25.4165V24.8311H112.654V25.4165H112.069ZM112.069 24.8311V24.2458H112.654V24.8311H112.069ZM112.069 24.2458V23.6604H112.654V24.2458H112.069ZM112.069 23.6604V23.075H112.654V23.6604H112.069ZM112.069 23.075V22.4897H112.654V23.075H112.069ZM113.24 23.6604V23.075H113.825V23.6604H113.24ZM113.24 24.2458V23.6604H113.825V24.2458H113.24ZM113.24 24.8311V24.2458H113.825V24.8311H113.24ZM113.24 25.4165V24.8311H113.825V25.4165H113.24ZM113.24 26.0019V25.4165H113.825V26.0019H113.24ZM106.801 22.4897V21.9043H107.386V22.4897H106.801ZM106.801 23.075V22.4897H107.386V23.075H106.801ZM106.801 23.6604V23.075H107.386V23.6604H106.801ZM106.801 24.2458V23.6604H107.386V24.2458H106.801ZM106.801 24.8311V24.2458H107.386V24.8311H106.801ZM106.801 25.4165V24.8311H107.386V25.4165H106.801ZM106.801 26.0019V25.4165H107.386V26.0019H106.801ZM105.63 26.0019V25.4165H106.215V26.0019H105.63ZM105.63 25.4165V24.8311H106.215V25.4165H105.63ZM105.63 24.8311V24.2458H106.215V24.8311H105.63ZM105.63 24.2458V23.6604H106.215V24.2458H105.63ZM105.63 23.6604V23.075H106.215V23.6604H105.63ZM105.63 23.075V22.4897H106.215V23.075H105.63ZM104.459 24.8311V24.2458H105.045V24.8311H104.459ZM104.459 25.4165V24.8311H105.045V25.4165H104.459ZM104.459 26.0019V25.4165H105.045V26.0019H104.459ZM105.045 26.0019V25.4165H105.63V26.0019H105.045ZM105.045 25.4165V24.8311H105.63V25.4165H105.045ZM105.045 24.8311V24.2458H105.63V24.8311H105.045ZM105.045 24.2458V23.6604H105.63V24.2458H105.045ZM105.045 23.6604V23.075H105.63V23.6604H105.045ZM106.215 23.075V22.4897H106.801V23.075H106.215ZM106.215 23.6604V23.075H106.801V23.6604H106.215ZM106.215 24.2458V23.6604H106.801V24.2458H106.215ZM106.215 24.8311V24.2458H106.801V24.8311H106.215ZM106.215 25.4165V24.8311H106.801V25.4165H106.215ZM106.215 26.0019V25.4165H106.801V26.0019H106.215ZM105.045 26.5872V27.1726H104.459V26.5872H105.045ZM105.63 26.5872V27.1726H105.045V26.5872H105.63ZM105.045 26.0019V26.5872H104.459V26.0019H105.045ZM106.801 26.0019V26.5872H106.215V26.0019H106.801ZM106.801 26.5872V27.1726H106.215V26.5872H106.801ZM107.386 26.5872V27.1726H106.801V26.5872H107.386ZM107.386 26.0019V26.5872H106.801V26.0019H107.386ZM105.63 26.0019V26.5872H105.045V26.0019H105.63ZM106.215 26.0019V26.5872H105.63V26.0019H106.215ZM106.215 26.5872V27.1726H105.63V26.5872H106.215ZM112.069 26.5872V27.1726H111.484V26.5872H112.069ZM112.654 26.5872V27.1726H112.069V26.5872H112.654ZM112.069 26.0019V26.5872H111.484V26.0019H112.069ZM113.825 26.0019V26.5872H113.24V26.0019H113.825ZM113.825 26.5872V27.1726H113.24V26.5872H113.825ZM114.41 26.5872V27.1726H113.825V26.5872H114.41ZM114.41 26.0019V26.5872H113.825V26.0019H114.41ZM112.654 26.0019V26.5872H112.069V26.0019H112.654ZM113.24 26.0019V26.5872H112.654V26.0019H113.24ZM113.24 26.5872V27.1726H112.654V26.5872H113.24ZM108.557 33.6116V34.197H107.971V33.6116H108.557ZM109.727 33.6116V34.197H109.142V33.6116H109.727ZM110.313 33.6116V34.197H109.727V33.6116H110.313ZM110.898 33.6116V34.197H110.313V33.6116H110.898ZM111.484 33.0263V33.6116H110.898V33.0263H111.484ZM107.971 33.0263V33.6116H107.386V33.0263H107.971ZM105.045 23.6604V24.2458H104.459V23.6604H105.045ZM105.045 23.075V23.6604H104.459V23.075H105.045ZM105.045 22.4897V23.075H104.459V22.4897H105.045ZM105.045 21.9043V22.4897H104.459V21.9043H105.045ZM105.63 21.9043V22.4897H105.045V21.9043H105.63ZM106.215 21.9043V22.4897H105.63V21.9043H106.215ZM106.801 21.9043V22.4897H106.215V21.9043H106.801ZM105.63 22.4897V23.075H105.045V22.4897H105.63ZM112.654 21.9043V22.4897H112.069V21.9043H112.654ZM113.24 21.9043V22.4897H112.654V21.9043H113.24ZM113.825 21.9043V22.4897H113.24V21.9043H113.825ZM114.41 21.9043V22.4897H113.825V21.9043H114.41ZM114.41 22.4897V23.075H113.825V22.4897H114.41ZM114.41 23.075V23.6604H113.825V23.075H114.41ZM114.41 23.6604V24.2458H113.825V23.6604H114.41ZM113.825 22.4897V23.075H113.24V22.4897H113.825ZM109.142 33.6116V34.197H108.557V33.6116H109.142ZM109.142 34.197V34.7824H108.557V34.197H109.142ZM109.142 34.7824V35.3677H108.557V34.7824H109.142ZM109.142 35.3677V35.9531H108.557V35.3677H109.142ZM109.142 35.9531V36.5385H108.557V35.9531H109.142ZM124.936 27.758V28.3433H124.35V27.758H124.936ZM124.35 27.758V28.3433H123.765V27.758H124.35ZM123.765 27.758V28.3433H123.179V27.758H123.765ZM123.179 27.758V28.3433H122.594V27.758H123.179ZM122.594 27.1726V27.758H122.009V27.1726H122.594ZM123.179 27.1726V27.758H122.594V27.1726H123.179ZM123.765 27.1726V27.758H123.179V27.1726H123.765ZM124.35 27.1726V27.758H123.765V27.1726H124.35ZM124.936 27.1726V27.758H124.35V27.1726H124.936ZM124.936 26.5872V27.1726H124.35V26.5872H124.936ZM124.35 26.5872V27.1726H123.765V26.5872H124.35ZM123.765 26.5872V27.1726H123.179V26.5872H123.765ZM123.179 26.5872V27.1726H122.594V26.5872H123.179ZM122.594 26.5872V27.1726H122.009V26.5872H122.594ZM123.765 26.0019V26.5872H123.179V26.0019H123.765ZM124.35 26.0019V26.5872H123.765V26.0019H124.35ZM123.179 26.0019V26.5872H122.594V26.0019H123.179ZM123.179 25.4165V26.0019H122.594V25.4165H123.179ZM122.594 25.4165V26.0019H122.009V25.4165H122.594ZM122.594 26.0019V26.5872H122.009V26.0019H122.594ZM122.009 26.0019V26.5872H121.423V26.0019H122.009ZM122.009 25.4165V26.0019H121.423V25.4165H122.009ZM122.009 26.5872V27.1726H121.423V26.5872H122.009ZM121.423 26.5872V27.1726H120.838V26.5872H121.423ZM121.423 27.1726V27.758H120.838V27.1726H121.423ZM122.009 27.1726V27.758H121.423V27.1726H122.009ZM120.838 27.1726V27.758H120.253V27.1726H120.838ZM120.838 26.5872V27.1726H120.253V26.5872H120.838ZM120.838 26.0019V26.5872H120.253V26.0019H120.838ZM120.838 25.4165V26.0019H120.253V25.4165H120.838ZM121.423 25.4165V26.0019H120.838V25.4165H121.423ZM121.423 26.0019V26.5872H120.838V26.0019H121.423ZM120.253 25.4165V26.0019H119.667V25.4165H120.253ZM119.667 25.4165V26.0019H119.082V25.4165H119.667ZM119.082 25.4165V26.0019H118.497V25.4165H119.082ZM119.082 26.0019V26.5872H118.497V26.0019H119.082ZM119.082 26.5872V27.1726H118.497V26.5872H119.082ZM119.082 27.1726V27.758H118.497V27.1726H119.082ZM119.667 27.1726V27.758H119.082V27.1726H119.667ZM120.253 27.1726V27.758H119.667V27.1726H120.253ZM120.253 26.5872V27.1726H119.667V26.5872H120.253ZM120.253 26.0019V26.5872H119.667V26.0019H120.253ZM119.667 26.0019V26.5872H119.082V26.0019H119.667ZM119.667 26.5872V27.1726H119.082V26.5872H119.667ZM118.497 26.5872V27.1726H117.911V26.5872H118.497ZM118.497 26.0019V26.5872H117.911V26.0019H118.497ZM117.911 26.0019V26.5872H117.326V26.0019H117.911ZM117.911 26.5872V27.1726H117.326V26.5872H117.911ZM117.326 26.5872V27.1726H116.74V26.5872H117.326ZM117.326 27.1726V27.758H116.74V27.1726H117.326ZM117.326 27.758V28.3433H116.74V27.758H117.326ZM117.911 27.758V28.3433H117.326V27.758H117.911ZM117.911 27.1726V27.758H117.326V27.1726H117.911ZM118.497 27.1726V27.758H117.911V27.1726H118.497ZM118.497 27.758V28.3433H117.911V27.758H118.497ZM119.082 27.758V28.3433H118.497V27.758H119.082ZM119.667 27.758V28.3433H119.082V27.758H119.667ZM116.74 27.758V28.3433H116.155V27.758H116.74ZM116.74 28.3433V28.9287H116.155V28.3433H116.74ZM116.74 28.9287V29.5141H116.155V28.9287H116.74ZM116.74 33.0263V33.6116H116.155V33.0263H116.74ZM117.326 33.0263V33.6116H116.74V33.0263H117.326ZM117.326 33.6116V34.197H116.74V33.6116H117.326ZM116.74 33.6116V34.197H116.155V33.6116H116.74ZM117.911 33.6116V34.197H117.326V33.6116H117.911ZM118.497 33.6116V34.197H117.911V33.6116H118.497ZM119.082 33.6116V34.197H118.497V33.6116H119.082ZM119.667 33.6116V34.197H119.082V33.6116H119.667ZM119.082 33.0263V33.6116H118.497V33.0263H119.082ZM119.082 28.9287V29.5141H118.497V28.9287H119.082ZM119.082 28.3433V28.9287H118.497V28.3433H119.082ZM118.497 28.3433V28.9287H117.911V28.3433H118.497ZM117.911 28.3433V28.9287H117.326V28.3433H117.911ZM117.326 28.3433V28.9287H116.74V28.3433H117.326ZM117.326 28.9287V29.5141H116.74V28.9287H117.326ZM117.911 33.0263V33.6116H117.326V33.0263H117.911ZM118.497 33.0263V33.6116H117.911V33.0263H118.497ZM117.911 28.9287V29.5141H117.326V28.9287H117.911ZM118.497 28.9287V29.5141H117.911V28.9287H118.497ZM123.179 32.4409V33.0263H122.594V32.4409H123.179ZM123.179 33.0263V33.6116H122.594V33.0263H123.179ZM123.765 33.0263V33.6116H123.179V33.0263H123.765ZM124.35 33.0263V33.6116H123.765V33.0263H124.35ZM124.936 33.0263V33.6116H124.35V33.0263H124.936ZM125.521 33.0263V33.6116H124.936V33.0263H125.521ZM125.521 32.4409V33.0263H124.936V32.4409H125.521ZM124.936 32.4409V33.0263H124.35V32.4409H124.936ZM124.35 32.4409V33.0263H123.765V32.4409H124.35ZM123.765 32.4409V33.0263H123.179V32.4409H123.765ZM125.521 33.6116V34.197H124.936V33.6116H125.521ZM124.936 33.6116V34.197H124.35V33.6116H124.936ZM124.35 33.6116V34.197H123.765V33.6116H124.35ZM123.765 33.6116V34.197H123.179V33.6116H123.765ZM123.179 33.6116V34.197H122.594V33.6116H123.179ZM122.594 33.6116V34.197H122.009V33.6116H122.594ZM122.594 34.197V34.7824H122.009V34.197H122.594ZM123.179 34.197V34.7824H122.594V34.197H123.179ZM123.765 34.197V34.7824H123.179V34.197H123.765ZM124.35 34.197V34.7824H123.765V34.197H124.35ZM124.35 34.7824V35.3677H123.765V34.7824H124.35ZM124.936 34.7824V35.3677H124.35V34.7824H124.936ZM124.936 34.197V34.7824H124.35V34.197H124.936ZM124.35 35.3677V35.9531H123.765V35.3677H124.35ZM123.765 35.3677V35.9531H123.179V35.3677H123.765ZM123.765 34.7824V35.3677H123.179V34.7824H123.765ZM123.179 34.7824V35.3677H122.594V34.7824H123.179ZM123.179 35.3677V35.9531H122.594V35.3677H123.179ZM123.179 35.9531V36.5385H122.594V35.9531H123.179ZM122.594 35.9531V36.5385H122.009V35.9531H122.594ZM122.009 35.9531V36.5385H121.423V35.9531H122.009ZM121.423 35.9531V36.5385H120.838V35.9531H121.423ZM120.838 35.9531V36.5385H120.253V35.9531H120.838ZM120.253 35.9531V36.5385H119.667V35.9531H120.253ZM119.667 35.9531V36.5385H119.082V35.9531H119.667ZM119.082 35.9531V36.5385H118.497V35.9531H119.082ZM119.667 35.3677V35.9531H119.082V35.3677H119.667ZM120.253 35.3677V35.9531H119.667V35.3677H120.253ZM120.838 35.3677V35.9531H120.253V35.3677H120.838ZM121.423 35.3677V35.9531H120.838V35.3677H121.423ZM122.009 35.3677V35.9531H121.423V35.3677H122.009ZM122.594 35.3677V35.9531H122.009V35.3677H122.594ZM122.594 34.7824V35.3677H122.009V34.7824H122.594ZM122.009 34.7824V35.3677H121.423V34.7824H122.009ZM121.423 34.7824V35.3677H120.838V34.7824H121.423ZM120.838 34.7824V35.3677H120.253V34.7824H120.838ZM120.253 34.7824V35.3677H119.667V34.7824H120.253ZM119.667 34.7824V35.3677H119.082V34.7824H119.667ZM119.082 35.3677V35.9531H118.497V35.3677H119.082ZM118.497 35.3677V35.9531H117.911V35.3677H118.497ZM117.911 35.3677V35.9531H117.326V35.3677H117.911ZM117.911 34.7824V35.3677H117.326V34.7824H117.911ZM117.326 34.7824V35.3677H116.74V34.7824H117.326ZM117.326 34.197V34.7824H116.74V34.197H117.326ZM117.911 34.197V34.7824H117.326V34.197H117.911ZM118.497 34.197V34.7824H117.911V34.197H118.497ZM119.082 34.197V34.7824H118.497V34.197H119.082ZM119.667 34.197V34.7824H119.082V34.197H119.667ZM120.253 34.197V34.7824H119.667V34.197H120.253ZM120.838 34.197V34.7824H120.253V34.197H120.838ZM121.423 34.197V34.7824H120.838V34.197H121.423ZM122.009 34.197V34.7824H121.423V34.197H122.009ZM119.082 34.7824V35.3677H118.497V34.7824H119.082ZM118.497 34.7824V35.3677H117.911V34.7824H118.497ZM124.35 31.2702V31.8555H123.765V31.2702H124.35ZM125.521 31.8555V32.4409H124.936V31.8555H125.521ZM124.936 31.8555V32.4409H124.35V31.8555H124.936ZM124.35 31.8555V32.4409H123.765V31.8555H124.35ZM123.765 31.8555V32.4409H123.179V31.8555H123.765ZM123.765 31.2702V31.8555H123.179V31.2702H123.765ZM123.179 31.2702V31.8555H122.594V31.2702H123.179ZM123.179 31.8555V32.4409H122.594V31.8555H123.179ZM119.667 28.9287V29.5141H119.082V28.9287H119.667ZM117.326 29.5141V30.0994H116.74V29.5141H117.326ZM117.326 30.0994V30.6848H116.74V30.0994H117.326ZM117.911 30.0994V30.6848H117.326V30.0994H117.911ZM117.911 30.6848V31.2702H117.326V30.6848H117.911ZM118.497 30.6848V31.2702H117.911V30.6848H118.497ZM119.082 31.2702V31.8555H118.497V31.2702H119.082ZM119.082 30.6848V31.2702H118.497V30.6848H119.082ZM119.082 30.0994V30.6848H118.497V30.0994H119.082ZM119.082 29.5141V30.0994H118.497V29.5141H119.082ZM118.497 29.5141V30.0994H117.911V29.5141H118.497ZM118.497 30.0994V30.6848H117.911V30.0994H118.497ZM117.911 29.5141V30.0994H117.326V29.5141H117.911ZM119.667 31.2702V31.8555H119.082V31.2702H119.667ZM120.253 31.2702V31.8555H119.667V31.2702H120.253ZM120.838 31.2702V31.8555H120.253V31.2702H120.838ZM121.423 31.2702V31.8555H120.838V31.2702H121.423ZM121.423 30.6848V31.2702H120.838V30.6848H121.423ZM120.838 30.6848V31.2702H120.253V30.6848H120.838ZM120.253 30.6848V31.2702H119.667V30.6848H120.253ZM119.667 30.6848V31.2702H119.082V30.6848H119.667ZM119.667 30.0994V30.6848H119.082V30.0994H119.667ZM119.667 29.5141V30.0994H119.082V29.5141H119.667ZM120.253 29.5141V30.0994H119.667V29.5141H120.253ZM120.838 29.5141V30.0994H120.253V29.5141H120.838ZM121.423 29.5141V30.0994H120.838V29.5141H121.423ZM121.423 30.0994V30.6848H120.838V30.0994H121.423ZM120.838 30.0994V30.6848H120.253V30.0994H120.838ZM120.253 30.0994V30.6848H119.667V30.0994H120.253ZM122.009 29.5141V30.0994H121.423V29.5141H122.009ZM122.594 29.5141V30.0994H122.009V29.5141H122.594ZM122.594 30.0994V30.6848H122.009V30.0994H122.594ZM122.594 30.6848V31.2702H122.009V30.6848H122.594ZM122.594 31.2702V31.8555H122.009V31.2702H122.594ZM122.009 31.2702V31.8555H121.423V31.2702H122.009ZM122.009 30.6848V31.2702H121.423V30.6848H122.009ZM122.009 30.0994V30.6848H121.423V30.0994H122.009ZM122.594 31.8555V32.4409H122.009V31.8555H122.594ZM123.179 29.5141V30.0994H122.594V29.5141H123.179ZM124.936 31.2702V31.8555H124.35V31.2702H124.936ZM124.936 30.6848V31.2702H124.35V30.6848H124.936ZM124.35 30.0994V30.6848H123.765V30.0994H124.35ZM123.765 30.0994V30.6848H123.179V30.0994H123.765ZM123.179 30.0994V30.6848H122.594V30.0994H123.179ZM123.179 30.6848V31.2702H122.594V30.6848H123.179ZM123.765 30.6848V31.2702H123.179V30.6848H123.765ZM124.35 30.6848V31.2702H123.765V30.6848H124.35ZM122.594 27.758V28.3433H122.009V27.758H122.594Z" fill="#3B3124"/>
</g>
<defs>
<filter id="filter0_d_152_37" x="0" y="0" width="172.982" height="62" filterUnits="userSpaceOnUse" color-interpolation-filters="sRGB">
<feFlood flood-opacity="0" result="BackgroundImageFix"/>
<feColorMatrix in="SourceAlpha" type="matrix" values="0 0 0 0 0 0 0 0 0 0 0 0 0 0 0 0 0 0 127 0" result="hardAlpha"/>
<feOffset dy="1"/>
<feGaussianBlur stdDeviation="2"/>
<feComposite in2="hardAlpha" operator="out"/>
<feColorMatrix type="matrix" values="0 0 0 0 0 0 0 0 0 0 0 0 0 0 0 0 0 0 0.25 0"/>
<feBlend mode="normal" in2="BackgroundImageFix" result="effect1_dropShadow_152_37"/>
<feBlend mode="normal" in="SourceGraphic" in2="effect1_dropShadow_152_37" result="shape"/>
</filter>
</defs>
</svg>
